<svg xmlns="http://www.w3.org/2000/svg" viewBox="0 0 1600 900" role="img" aria-label="How to Set Up a SIP Trunk with 3CX: Step-by-Step Guide - Tutorials cover image by VOIP CAT">
  <defs>
    <linearGradient id="bg" x1="0" y1="0" x2="1" y2="1">
      <stop offset="0" stop-color="#8b5cf6"/>
      <stop offset="1" stop-color="#4c1d95"/>
    </linearGradient>
    <radialGradient id="glow" cx="0.78" cy="0.42" r="0.55">
      <stop offset="0" stop-color="rgba(255,255,255,0.35)"/>
      <stop offset="1" stop-color="rgba(255,255,255,0)"/>
    </radialGradient>
  </defs>
  <rect width="1600" height="900" fill="url(#bg)"/>
  <rect width="1600" height="900" fill="url(#glow)"/>
  <circle cx="1007.8" cy="239.9" r="1.0" fill="rgba(255,255,255,0.072)"/><circle cx="184.7" cy="332.0" r="3.0" fill="rgba(255,255,255,0.072)"/><circle cx="1115.8" cy="170.1" r="2.1" fill="rgba(255,255,255,0.072)"/><circle cx="768.1" cy="547.7" r="2.5" fill="rgba(255,255,255,0.072)"/><circle cx="1296.0" cy="519.7" r="1.5" fill="rgba(255,255,255,0.072)"/><circle cx="589.4" cy="466.8" r="1.7" fill="rgba(255,255,255,0.072)"/><circle cx="495.0" cy="416.3" r="1.9" fill="rgba(255,255,255,0.072)"/><circle cx="1155.0" cy="681.6" r="1.6" fill="rgba(255,255,255,0.072)"/><circle cx="144.9" cy="787.4" r="2.9" fill="rgba(255,255,255,0.072)"/><circle cx="1096.6" cy="645.9" r="1.7" fill="rgba(255,255,255,0.072)"/><circle cx="1325.2" cy="197.2" r="1.2" fill="rgba(255,255,255,0.072)"/><circle cx="1385.6" cy="601.7" r="1.5" fill="rgba(255,255,255,0.072)"/><circle cx="899.2" cy="93.8" r="1.4" fill="rgba(255,255,255,0.072)"/><circle cx="8.5" cy="84.4" r="2.8" fill="rgba(255,255,255,0.072)"/><circle cx="1268.6" cy="249.0" r="2.7" fill="rgba(255,255,255,0.072)"/><circle cx="45.7" cy="803.2" r="2.2" fill="rgba(255,255,255,0.072)"/><circle cx="1261.1" cy="786.1" r="2.8" fill="rgba(255,255,255,0.072)"/><circle cx="1502.3" cy="288.9" r="1.8" fill="rgba(255,255,255,0.072)"/><circle cx="664.3" cy="642.6" r="1.9" fill="rgba(255,255,255,0.072)"/><circle cx="1021.9" cy="497.8" r="3.0" fill="rgba(255,255,255,0.072)"/><circle cx="18.6" cy="304.2" r="1.4" fill="rgba(255,255,255,0.072)"/><circle cx="224.6" cy="200.6" r="2.2" fill="rgba(255,255,255,0.072)"/><circle cx="823.7" cy="349.2" r="2.2" fill="rgba(255,255,255,0.072)"/><circle cx="1570.6" cy="339.5" r="2.5" fill="rgba(255,255,255,0.072)"/><circle cx="180.6" cy="314.9" r="1.8" fill="rgba(255,255,255,0.072)"/><circle cx="250.2" cy="80.4" r="2.4" fill="rgba(255,255,255,0.072)"/><circle cx="83.1" cy="753.2" r="1.5" fill="rgba(255,255,255,0.072)"/><circle cx="1173.0" cy="109.4" r="2.3" fill="rgba(255,255,255,0.072)"/><circle cx="1055.9" cy="414.3" r="2.5" fill="rgba(255,255,255,0.072)"/><circle cx="1401.2" cy="641.9" r="1.8" fill="rgba(255,255,255,0.072)"/><circle cx="332.6" cy="186.2" r="1.4" fill="rgba(255,255,255,0.072)"/><circle cx="139.7" cy="737.0" r="2.3" fill="rgba(255,255,255,0.072)"/><circle cx="1304.8" cy="376.3" r="2.5" fill="rgba(255,255,255,0.072)"/><circle cx="520.9" cy="713.2" r="1.8" fill="rgba(255,255,255,0.072)"/><circle cx="1065.6" cy="190.3" r="2.8" fill="rgba(255,255,255,0.072)"/><circle cx="628.5" cy="25.8" r="1.9" fill="rgba(255,255,255,0.072)"/><circle cx="974.9" cy="385.4" r="2.9" fill="rgba(255,255,255,0.072)"/><circle cx="1313.6" cy="595.1" r="1.9" fill="rgba(255,255,255,0.072)"/><circle cx="581.8" cy="509.3" r="2.9" fill="rgba(255,255,255,0.072)"/><circle cx="942.5" cy="341.8" r="2.3" fill="rgba(255,255,255,0.072)"/><circle cx="576.1" cy="526.2" r="2.8" fill="rgba(255,255,255,0.072)"/><circle cx="1059.4" cy="29.2" r="1.5" fill="rgba(255,255,255,0.072)"/><circle cx="322.9" cy="65.2" r="2.5" fill="rgba(255,255,255,0.072)"/><circle cx="889.2" cy="580.8" r="2.2" fill="rgba(255,255,255,0.072)"/><circle cx="789.4" cy="718.7" r="1.9" fill="rgba(255,255,255,0.072)"/><circle cx="1503.4" cy="494.6" r="2.2" fill="rgba(255,255,255,0.072)"/><circle cx="1458.0" cy="436.4" r="1.9" fill="rgba(255,255,255,0.072)"/><circle cx="1594.7" cy="879.9" r="2.8" fill="rgba(255,255,255,0.072)"/><circle cx="1428.4" cy="691.9" r="1.2" fill="rgba(255,255,255,0.072)"/><circle cx="1120.7" cy="324.8" r="1.5" fill="rgba(255,255,255,0.072)"/><circle cx="31.8" cy="40.5" r="2.6" fill="rgba(255,255,255,0.072)"/><circle cx="767.0" cy="30.5" r="2.9" fill="rgba(255,255,255,0.072)"/><circle cx="90.1" cy="47.5" r="1.2" fill="rgba(255,255,255,0.072)"/><circle cx="1058.4" cy="798.1" r="1.0" fill="rgba(255,255,255,0.072)"/><circle cx="644.7" cy="516.4" r="1.5" fill="rgba(255,255,255,0.072)"/><circle cx="701.1" cy="16.4" r="3.0" fill="rgba(255,255,255,0.072)"/><circle cx="1167.1" cy="700.1" r="2.0" fill="rgba(255,255,255,0.072)"/><circle cx="867.6" cy="870.9" r="2.0" fill="rgba(255,255,255,0.072)"/><circle cx="1252.7" cy="293.4" r="1.6" fill="rgba(255,255,255,0.072)"/><circle cx="1332.1" cy="643.7" r="1.3" fill="rgba(255,255,255,0.072)"/>
  
    <g fill="none" stroke="rgba(255,255,255,0.92)" stroke-width="8" stroke-linejoin="round">
      <g transform="translate(1020 380)">
        <circle r="100" />
        <circle r="40" />
        <line x1="100.0" y1="0.0" x2="130.0" y2="0.0" stroke-width="20"/><line x1="70.7" y1="70.7" x2="91.9" y2="91.9" stroke-width="20"/><line x1="0.0" y1="100.0" x2="0.0" y2="130.0" stroke-width="20"/><line x1="-70.7" y1="70.7" x2="-91.9" y2="91.9" stroke-width="20"/><line x1="-100.0" y1="0.0" x2="-130.0" y2="0.0" stroke-width="20"/><line x1="-70.7" y1="-70.7" x2="-91.9" y2="-91.9" stroke-width="20"/><line x1="-0.0" y1="-100.0" x2="-0.0" y2="-130.0" stroke-width="20"/><line x1="70.7" y1="-70.7" x2="91.9" y2="-91.9" stroke-width="20"/>
      </g>
      <g transform="translate(1240 540)">
        <circle r="70" />
        <circle r="28" />
        <line x1="70.0" y1="0.0" x2="95.0" y2="0.0" stroke-width="16"/><line x1="35.0" y1="60.6" x2="47.5" y2="82.3" stroke-width="16"/><line x1="-35.0" y1="60.6" x2="-47.5" y2="82.3" stroke-width="16"/><line x1="-70.0" y1="0.0" x2="-95.0" y2="0.0" stroke-width="16"/><line x1="-35.0" y1="-60.6" x2="-47.5" y2="-82.3" stroke-width="16"/><line x1="35.0" y1="-60.6" x2="47.5" y2="-82.3" stroke-width="16"/>
      </g>
    </g>
  <g font-family="Inter, system-ui, -apple-system, Segoe UI, Roboto, sans-serif" fill="#ffffff">
    <text x="80" y="120" font-size="28" letter-spacing="6" font-weight="600" opacity="0.85">TUTORIALS</text>
    <text x="80" y="260" font-size="76" font-weight="800">How to Set Up a SIP Trunk</text>
    <text x="80" y="352" font-size="76" font-weight="800">with 3CX: Step-by-Step</text>
    <text x="80" y="444" font-size="76" font-weight="800">Guide</text>
    <text x="80" y="820" font-size="28" font-weight="700" letter-spacing="4">VOIP CAT</text>
    <text x="80" y="855" font-size="20" opacity="0.85">voipcat.com · Global VoIP &amp; Call Center Provider</text>
  </g>
</svg>