<svg xmlns="http://www.w3.org/2000/svg" viewBox="0 0 1600 900" role="img" aria-label="10 Benefits of Cloud PBX for Modern Businesses - Cloud PBX cover image by VOIP CAT">
  <defs>
    <linearGradient id="bg" x1="0" y1="0" x2="1" y2="1">
      <stop offset="0" stop-color="#3b82f6"/>
      <stop offset="1" stop-color="#1e40af"/>
    </linearGradient>
    <radialGradient id="glow" cx="0.78" cy="0.42" r="0.55">
      <stop offset="0" stop-color="rgba(255,255,255,0.35)"/>
      <stop offset="1" stop-color="rgba(255,255,255,0)"/>
    </radialGradient>
  </defs>
  <rect width="1600" height="900" fill="url(#bg)"/>
  <rect width="1600" height="900" fill="url(#glow)"/>
  <circle cx="696.7" cy="201.6" r="1.2" fill="rgba(255,255,255,0.044)"/><circle cx="1308.4" cy="684.9" r="2.9" fill="rgba(255,255,255,0.044)"/><circle cx="429.4" cy="686.7" r="1.5" fill="rgba(255,255,255,0.044)"/><circle cx="1272.5" cy="825.2" r="1.4" fill="rgba(255,255,255,0.044)"/><circle cx="432.7" cy="309.2" r="1.9" fill="rgba(255,255,255,0.044)"/><circle cx="1436.6" cy="225.5" r="1.9" fill="rgba(255,255,255,0.044)"/><circle cx="1442.8" cy="234.6" r="2.5" fill="rgba(255,255,255,0.044)"/><circle cx="298.9" cy="338.3" r="1.9" fill="rgba(255,255,255,0.044)"/><circle cx="982.9" cy="256.0" r="2.0" fill="rgba(255,255,255,0.044)"/><circle cx="569.1" cy="407.4" r="1.4" fill="rgba(255,255,255,0.044)"/><circle cx="122.3" cy="336.6" r="1.4" fill="rgba(255,255,255,0.044)"/><circle cx="1473.3" cy="840.9" r="2.6" fill="rgba(255,255,255,0.044)"/><circle cx="145.6" cy="694.4" r="2.5" fill="rgba(255,255,255,0.044)"/><circle cx="417.0" cy="409.5" r="2.0" fill="rgba(255,255,255,0.044)"/><circle cx="1445.9" cy="303.5" r="2.2" fill="rgba(255,255,255,0.044)"/><circle cx="954.9" cy="283.5" r="2.2" fill="rgba(255,255,255,0.044)"/><circle cx="518.2" cy="518.6" r="1.3" fill="rgba(255,255,255,0.044)"/><circle cx="1213.3" cy="379.1" r="1.0" fill="rgba(255,255,255,0.044)"/><circle cx="625.0" cy="200.3" r="2.6" fill="rgba(255,255,255,0.044)"/><circle cx="1186.4" cy="202.6" r="2.8" fill="rgba(255,255,255,0.044)"/><circle cx="1391.2" cy="311.0" r="1.6" fill="rgba(255,255,255,0.044)"/><circle cx="1044.4" cy="746.2" r="2.9" fill="rgba(255,255,255,0.044)"/><circle cx="377.8" cy="766.0" r="2.0" fill="rgba(255,255,255,0.044)"/><circle cx="1470.3" cy="753.8" r="2.1" fill="rgba(255,255,255,0.044)"/><circle cx="1114.9" cy="788.4" r="1.1" fill="rgba(255,255,255,0.044)"/><circle cx="1018.6" cy="109.3" r="2.9" fill="rgba(255,255,255,0.044)"/><circle cx="1567.5" cy="370.9" r="2.4" fill="rgba(255,255,255,0.044)"/><circle cx="1285.0" cy="456.6" r="1.6" fill="rgba(255,255,255,0.044)"/><circle cx="1207.6" cy="193.5" r="1.3" fill="rgba(255,255,255,0.044)"/><circle cx="331.2" cy="608.9" r="1.5" fill="rgba(255,255,255,0.044)"/><circle cx="313.8" cy="0.3" r="1.7" fill="rgba(255,255,255,0.044)"/><circle cx="1565.9" cy="678.1" r="2.2" fill="rgba(255,255,255,0.044)"/><circle cx="889.7" cy="824.5" r="2.6" fill="rgba(255,255,255,0.044)"/><circle cx="1328.2" cy="323.6" r="2.6" fill="rgba(255,255,255,0.044)"/><circle cx="185.1" cy="118.1" r="2.6" fill="rgba(255,255,255,0.044)"/><circle cx="694.2" cy="71.5" r="1.9" fill="rgba(255,255,255,0.044)"/><circle cx="1394.8" cy="81.2" r="2.9" fill="rgba(255,255,255,0.044)"/><circle cx="1038.7" cy="288.5" r="1.1" fill="rgba(255,255,255,0.044)"/><circle cx="1073.0" cy="492.7" r="1.2" fill="rgba(255,255,255,0.044)"/><circle cx="325.1" cy="534.6" r="1.1" fill="rgba(255,255,255,0.044)"/><circle cx="512.6" cy="163.4" r="2.2" fill="rgba(255,255,255,0.044)"/><circle cx="1304.4" cy="887.2" r="1.7" fill="rgba(255,255,255,0.044)"/><circle cx="157.5" cy="815.5" r="2.8" fill="rgba(255,255,255,0.044)"/><circle cx="1214.3" cy="122.5" r="1.9" fill="rgba(255,255,255,0.044)"/><circle cx="1412.2" cy="320.6" r="2.7" fill="rgba(255,255,255,0.044)"/><circle cx="446.4" cy="657.5" r="2.4" fill="rgba(255,255,255,0.044)"/><circle cx="1342.2" cy="775.6" r="2.7" fill="rgba(255,255,255,0.044)"/><circle cx="1482.9" cy="446.1" r="1.2" fill="rgba(255,255,255,0.044)"/><circle cx="522.8" cy="194.2" r="2.0" fill="rgba(255,255,255,0.044)"/><circle cx="457.9" cy="344.7" r="1.7" fill="rgba(255,255,255,0.044)"/><circle cx="1277.5" cy="575.0" r="1.4" fill="rgba(255,255,255,0.044)"/><circle cx="612.9" cy="875.5" r="2.8" fill="rgba(255,255,255,0.044)"/><circle cx="220.3" cy="528.7" r="2.0" fill="rgba(255,255,255,0.044)"/><circle cx="792.9" cy="898.8" r="1.5" fill="rgba(255,255,255,0.044)"/><circle cx="943.8" cy="314.2" r="1.8" fill="rgba(255,255,255,0.044)"/><circle cx="250.9" cy="585.0" r="1.9" fill="rgba(255,255,255,0.044)"/><circle cx="151.7" cy="673.3" r="2.0" fill="rgba(255,255,255,0.044)"/><circle cx="599.5" cy="3.5" r="2.8" fill="rgba(255,255,255,0.044)"/><circle cx="601.6" cy="584.1" r="1.8" fill="rgba(255,255,255,0.044)"/><circle cx="188.6" cy="528.4" r="1.1" fill="rgba(255,255,255,0.044)"/>
  
    <g transform="translate(900 380)" fill="rgba(255,255,255,0.96)">
      <path d="M60 120 a 70 70 0 0 1 70 -70 a 90 90 0 0 1 170 18 a 60 60 0 0 1 24 116 l -224 0 a 50 50 0 0 1 -40 -64 z"/>
    </g>
    <g stroke="rgba(255,255,255,0.85)" stroke-width="6" fill="none" stroke-linecap="round">
      <path d="M1000 580 v 60"/>
      <path d="M1080 580 v 100"/>
      <path d="M1160 580 v 70"/>
      <circle cx="1000" cy="660" r="6" fill="rgba(255,255,255,0.95)"/>
      <circle cx="1080" cy="700" r="6" fill="rgba(255,255,255,0.95)"/>
      <circle cx="1160" cy="670" r="6" fill="rgba(255,255,255,0.95)"/>
    </g>
  <g font-family="Inter, system-ui, -apple-system, Segoe UI, Roboto, sans-serif" fill="#ffffff">
    <text x="80" y="120" font-size="28" letter-spacing="6" font-weight="600" opacity="0.85">CLOUD PBX</text>
    <text x="80" y="260" font-size="76" font-weight="800">10 Benefits of Cloud PBX</text>
    <text x="80" y="352" font-size="76" font-weight="800">for Modern Businesses</text>
    <text x="80" y="820" font-size="28" font-weight="700" letter-spacing="4">VOIP CAT</text>
    <text x="80" y="855" font-size="20" opacity="0.85">voipcat.com · Global VoIP &amp; Call Center Provider</text>
  </g>
</svg>