<svg xmlns="http://www.w3.org/2000/svg" viewBox="0 0 1600 900" role="img" aria-label="FreePBX Setup Guide: Build Your Business Phone System - Tutorials cover image by VOIP CAT">
  <defs>
    <linearGradient id="bg" x1="0" y1="0" x2="1" y2="1">
      <stop offset="0" stop-color="#8b5cf6"/>
      <stop offset="1" stop-color="#4c1d95"/>
    </linearGradient>
    <radialGradient id="glow" cx="0.78" cy="0.42" r="0.55">
      <stop offset="0" stop-color="rgba(255,255,255,0.35)"/>
      <stop offset="1" stop-color="rgba(255,255,255,0)"/>
    </radialGradient>
  </defs>
  <rect width="1600" height="900" fill="url(#bg)"/>
  <rect width="1600" height="900" fill="url(#glow)"/>
  <circle cx="907.5" cy="650.5" r="1.5" fill="rgba(255,255,255,0.090)"/><circle cx="1116.7" cy="44.2" r="1.7" fill="rgba(255,255,255,0.090)"/><circle cx="234.0" cy="441.0" r="1.5" fill="rgba(255,255,255,0.090)"/><circle cx="1055.1" cy="761.3" r="1.3" fill="rgba(255,255,255,0.090)"/><circle cx="1526.2" cy="844.1" r="2.0" fill="rgba(255,255,255,0.090)"/><circle cx="41.1" cy="207.9" r="1.4" fill="rgba(255,255,255,0.090)"/><circle cx="567.5" cy="786.2" r="2.3" fill="rgba(255,255,255,0.090)"/><circle cx="280.1" cy="243.0" r="1.5" fill="rgba(255,255,255,0.090)"/><circle cx="553.6" cy="530.5" r="1.7" fill="rgba(255,255,255,0.090)"/><circle cx="1397.1" cy="66.9" r="1.8" fill="rgba(255,255,255,0.090)"/><circle cx="1337.5" cy="887.6" r="1.5" fill="rgba(255,255,255,0.090)"/><circle cx="1198.2" cy="695.0" r="2.4" fill="rgba(255,255,255,0.090)"/><circle cx="1031.2" cy="485.0" r="2.9" fill="rgba(255,255,255,0.090)"/><circle cx="330.3" cy="541.2" r="1.7" fill="rgba(255,255,255,0.090)"/><circle cx="18.6" cy="470.3" r="1.9" fill="rgba(255,255,255,0.090)"/><circle cx="1417.9" cy="718.9" r="1.6" fill="rgba(255,255,255,0.090)"/><circle cx="1212.1" cy="44.7" r="2.3" fill="rgba(255,255,255,0.090)"/><circle cx="1396.6" cy="541.7" r="2.0" fill="rgba(255,255,255,0.090)"/><circle cx="700.9" cy="567.2" r="2.4" fill="rgba(255,255,255,0.090)"/><circle cx="1056.2" cy="339.7" r="2.6" fill="rgba(255,255,255,0.090)"/><circle cx="1571.3" cy="764.0" r="1.3" fill="rgba(255,255,255,0.090)"/><circle cx="554.1" cy="179.3" r="1.0" fill="rgba(255,255,255,0.090)"/><circle cx="1489.0" cy="509.6" r="2.8" fill="rgba(255,255,255,0.090)"/><circle cx="612.0" cy="490.9" r="2.9" fill="rgba(255,255,255,0.090)"/><circle cx="1587.2" cy="81.6" r="1.2" fill="rgba(255,255,255,0.090)"/><circle cx="529.6" cy="539.9" r="2.5" fill="rgba(255,255,255,0.090)"/><circle cx="468.0" cy="720.8" r="1.3" fill="rgba(255,255,255,0.090)"/><circle cx="288.3" cy="693.1" r="1.1" fill="rgba(255,255,255,0.090)"/><circle cx="406.3" cy="1.4" r="2.0" fill="rgba(255,255,255,0.090)"/><circle cx="207.8" cy="346.4" r="2.7" fill="rgba(255,255,255,0.090)"/><circle cx="884.8" cy="411.5" r="2.2" fill="rgba(255,255,255,0.090)"/><circle cx="1351.4" cy="45.1" r="1.9" fill="rgba(255,255,255,0.090)"/><circle cx="741.6" cy="784.1" r="1.2" fill="rgba(255,255,255,0.090)"/><circle cx="1024.2" cy="612.1" r="1.6" fill="rgba(255,255,255,0.090)"/><circle cx="189.3" cy="871.5" r="2.2" fill="rgba(255,255,255,0.090)"/><circle cx="167.4" cy="1.1" r="1.2" fill="rgba(255,255,255,0.090)"/><circle cx="961.7" cy="263.7" r="1.4" fill="rgba(255,255,255,0.090)"/><circle cx="499.2" cy="641.3" r="2.4" fill="rgba(255,255,255,0.090)"/><circle cx="1189.3" cy="782.5" r="2.0" fill="rgba(255,255,255,0.090)"/><circle cx="198.6" cy="2.5" r="1.9" fill="rgba(255,255,255,0.090)"/><circle cx="574.0" cy="187.2" r="2.2" fill="rgba(255,255,255,0.090)"/><circle cx="1393.0" cy="416.9" r="2.7" fill="rgba(255,255,255,0.090)"/><circle cx="182.1" cy="169.3" r="1.5" fill="rgba(255,255,255,0.090)"/><circle cx="987.2" cy="563.4" r="2.1" fill="rgba(255,255,255,0.090)"/><circle cx="434.8" cy="45.6" r="2.4" fill="rgba(255,255,255,0.090)"/><circle cx="858.9" cy="623.5" r="3.0" fill="rgba(255,255,255,0.090)"/><circle cx="1520.0" cy="868.5" r="1.4" fill="rgba(255,255,255,0.090)"/><circle cx="447.4" cy="791.8" r="2.5" fill="rgba(255,255,255,0.090)"/><circle cx="1111.4" cy="508.2" r="2.2" fill="rgba(255,255,255,0.090)"/><circle cx="344.5" cy="772.7" r="1.1" fill="rgba(255,255,255,0.090)"/><circle cx="714.7" cy="99.7" r="2.9" fill="rgba(255,255,255,0.090)"/><circle cx="814.1" cy="424.3" r="1.5" fill="rgba(255,255,255,0.090)"/><circle cx="988.5" cy="790.0" r="2.5" fill="rgba(255,255,255,0.090)"/><circle cx="978.6" cy="691.0" r="1.5" fill="rgba(255,255,255,0.090)"/><circle cx="741.6" cy="658.0" r="2.7" fill="rgba(255,255,255,0.090)"/><circle cx="1266.4" cy="625.9" r="2.1" fill="rgba(255,255,255,0.090)"/><circle cx="23.0" cy="22.3" r="1.5" fill="rgba(255,255,255,0.090)"/><circle cx="470.8" cy="327.2" r="2.0" fill="rgba(255,255,255,0.090)"/><circle cx="1080.9" cy="180.1" r="3.0" fill="rgba(255,255,255,0.090)"/><circle cx="211.7" cy="398.1" r="1.8" fill="rgba(255,255,255,0.090)"/>
  
    <g transform="translate(960 270)" fill="rgba(255,255,255,0.12)" stroke="rgba(255,255,255,0.9)" stroke-width="4">
      <rect width="280" height="80" rx="10"/>
      <rect y="100" width="280" height="80" rx="10"/>
      <rect y="200" width="280" height="80" rx="10"/>
      <g fill="rgba(255,255,255,0.95)" stroke="none">
        <circle cx="240" cy="40" r="6"/>
        <circle cx="220" cy="40" r="6"/>
        <circle cx="240" cy="140" r="6"/>
        <circle cx="220" cy="140" r="6"/>
        <circle cx="240" cy="240" r="6"/>
        <circle cx="220" cy="240" r="6"/>
      </g>
      <g stroke="rgba(255,255,255,0.6)" stroke-width="3">
        <line x1="20" y1="40" x2="160" y2="40"/>
        <line x1="20" y1="140" x2="160" y2="140"/>
        <line x1="20" y1="240" x2="160" y2="240"/>
      </g>
    </g>
  <g font-family="Inter, system-ui, -apple-system, Segoe UI, Roboto, sans-serif" fill="#ffffff">
    <text x="80" y="120" font-size="28" letter-spacing="6" font-weight="600" opacity="0.85">TUTORIALS</text>
    <text x="80" y="260" font-size="76" font-weight="800">FreePBX Setup Guide: Build</text>
    <text x="80" y="352" font-size="76" font-weight="800">Your Business Phone System</text>
    <text x="80" y="820" font-size="28" font-weight="700" letter-spacing="4">VOIP CAT</text>
    <text x="80" y="855" font-size="20" opacity="0.85">voipcat.com · Global VoIP &amp; Call Center Provider</text>
  </g>
</svg>