<svg xmlns="http://www.w3.org/2000/svg" viewBox="0 0 1600 900" role="img" aria-label="Hosted vs. On-Premise VoIP: Which is Right for You? - Business cover image by VOIP CAT">
  <defs>
    <linearGradient id="bg" x1="0" y1="0" x2="1" y2="1">
      <stop offset="0" stop-color="#facc15"/>
      <stop offset="1" stop-color="#854d0e"/>
    </linearGradient>
    <radialGradient id="glow" cx="0.78" cy="0.42" r="0.55">
      <stop offset="0" stop-color="rgba(255,255,255,0.35)"/>
      <stop offset="1" stop-color="rgba(255,255,255,0)"/>
    </radialGradient>
  </defs>
  <rect width="1600" height="900" fill="url(#bg)"/>
  <rect width="1600" height="900" fill="url(#glow)"/>
  <circle cx="68.4" cy="169.2" r="2.9" fill="rgba(255,255,255,0.068)"/><circle cx="288.6" cy="704.6" r="3.0" fill="rgba(255,255,255,0.068)"/><circle cx="689.2" cy="63.8" r="1.7" fill="rgba(255,255,255,0.068)"/><circle cx="233.0" cy="183.1" r="2.2" fill="rgba(255,255,255,0.068)"/><circle cx="1239.7" cy="651.9" r="1.2" fill="rgba(255,255,255,0.068)"/><circle cx="469.5" cy="839.4" r="2.0" fill="rgba(255,255,255,0.068)"/><circle cx="1468.9" cy="455.7" r="2.7" fill="rgba(255,255,255,0.068)"/><circle cx="1.4" cy="592.4" r="2.6" fill="rgba(255,255,255,0.068)"/><circle cx="546.8" cy="447.2" r="1.6" fill="rgba(255,255,255,0.068)"/><circle cx="1316.5" cy="555.8" r="2.7" fill="rgba(255,255,255,0.068)"/><circle cx="67.3" cy="273.4" r="2.4" fill="rgba(255,255,255,0.068)"/><circle cx="1393.4" cy="45.8" r="2.5" fill="rgba(255,255,255,0.068)"/><circle cx="1488.2" cy="336.4" r="3.0" fill="rgba(255,255,255,0.068)"/><circle cx="576.3" cy="100.1" r="2.4" fill="rgba(255,255,255,0.068)"/><circle cx="150.4" cy="296.9" r="2.9" fill="rgba(255,255,255,0.068)"/><circle cx="95.7" cy="192.0" r="1.9" fill="rgba(255,255,255,0.068)"/><circle cx="318.2" cy="892.0" r="1.2" fill="rgba(255,255,255,0.068)"/><circle cx="1533.3" cy="210.2" r="2.8" fill="rgba(255,255,255,0.068)"/><circle cx="1339.3" cy="469.2" r="2.6" fill="rgba(255,255,255,0.068)"/><circle cx="142.3" cy="706.2" r="2.7" fill="rgba(255,255,255,0.068)"/><circle cx="1553.2" cy="306.4" r="1.6" fill="rgba(255,255,255,0.068)"/><circle cx="1243.3" cy="637.9" r="1.7" fill="rgba(255,255,255,0.068)"/><circle cx="1072.4" cy="487.4" r="2.7" fill="rgba(255,255,255,0.068)"/><circle cx="853.2" cy="220.7" r="2.4" fill="rgba(255,255,255,0.068)"/><circle cx="731.0" cy="422.8" r="2.2" fill="rgba(255,255,255,0.068)"/><circle cx="522.3" cy="858.8" r="2.0" fill="rgba(255,255,255,0.068)"/><circle cx="565.4" cy="722.9" r="2.2" fill="rgba(255,255,255,0.068)"/><circle cx="1298.8" cy="417.2" r="1.4" fill="rgba(255,255,255,0.068)"/><circle cx="1286.6" cy="430.1" r="1.6" fill="rgba(255,255,255,0.068)"/><circle cx="1322.0" cy="285.4" r="1.9" fill="rgba(255,255,255,0.068)"/><circle cx="504.1" cy="455.4" r="1.5" fill="rgba(255,255,255,0.068)"/><circle cx="176.5" cy="693.5" r="1.6" fill="rgba(255,255,255,0.068)"/><circle cx="1124.6" cy="158.7" r="1.1" fill="rgba(255,255,255,0.068)"/><circle cx="486.1" cy="44.5" r="2.5" fill="rgba(255,255,255,0.068)"/><circle cx="483.2" cy="784.1" r="2.5" fill="rgba(255,255,255,0.068)"/><circle cx="675.0" cy="236.8" r="1.5" fill="rgba(255,255,255,0.068)"/><circle cx="1104.8" cy="676.1" r="1.5" fill="rgba(255,255,255,0.068)"/><circle cx="205.3" cy="393.4" r="1.9" fill="rgba(255,255,255,0.068)"/><circle cx="486.6" cy="856.9" r="2.5" fill="rgba(255,255,255,0.068)"/><circle cx="509.6" cy="751.4" r="1.8" fill="rgba(255,255,255,0.068)"/><circle cx="259.6" cy="426.9" r="2.9" fill="rgba(255,255,255,0.068)"/><circle cx="1456.6" cy="672.0" r="2.1" fill="rgba(255,255,255,0.068)"/><circle cx="589.5" cy="785.3" r="2.0" fill="rgba(255,255,255,0.068)"/><circle cx="811.0" cy="414.2" r="2.7" fill="rgba(255,255,255,0.068)"/><circle cx="962.9" cy="447.3" r="2.8" fill="rgba(255,255,255,0.068)"/><circle cx="1315.2" cy="365.7" r="2.1" fill="rgba(255,255,255,0.068)"/><circle cx="591.9" cy="120.0" r="1.5" fill="rgba(255,255,255,0.068)"/><circle cx="892.5" cy="235.5" r="1.0" fill="rgba(255,255,255,0.068)"/><circle cx="185.1" cy="707.1" r="1.1" fill="rgba(255,255,255,0.068)"/><circle cx="173.7" cy="200.0" r="1.3" fill="rgba(255,255,255,0.068)"/><circle cx="6.1" cy="518.1" r="2.6" fill="rgba(255,255,255,0.068)"/><circle cx="1298.0" cy="441.9" r="1.8" fill="rgba(255,255,255,0.068)"/><circle cx="1450.8" cy="691.4" r="2.6" fill="rgba(255,255,255,0.068)"/><circle cx="88.6" cy="45.5" r="2.5" fill="rgba(255,255,255,0.068)"/><circle cx="906.7" cy="330.7" r="1.4" fill="rgba(255,255,255,0.068)"/><circle cx="1121.5" cy="290.2" r="2.2" fill="rgba(255,255,255,0.068)"/><circle cx="161.8" cy="886.5" r="2.4" fill="rgba(255,255,255,0.068)"/><circle cx="1514.6" cy="290.4" r="1.4" fill="rgba(255,255,255,0.068)"/><circle cx="446.5" cy="110.2" r="1.2" fill="rgba(255,255,255,0.068)"/><circle cx="88.1" cy="657.7" r="2.5" fill="rgba(255,255,255,0.068)"/>
  
    <g fill="rgba(255,255,255,0.9)" stroke="rgba(255,255,255,0.95)" stroke-width="4">
      <g transform="translate(880 320)">
        <rect width="240" height="160" rx="14" fill="rgba(255,255,255,0.12)"/>
        <text x="120" y="100" text-anchor="middle" fill="rgba(255,255,255,0.95)" font-size="40" font-family="Inter, system-ui, sans-serif" font-weight="700">HOSTED</text>
      </g>
      <g transform="translate(1180 460)">
        <rect width="240" height="160" rx="14" fill="rgba(255,255,255,0.12)"/>
        <text x="120" y="100" text-anchor="middle" fill="rgba(255,255,255,0.95)" font-size="36" font-family="Inter, system-ui, sans-serif" font-weight="700">ON-PREM</text>
      </g>
      <g stroke="rgba(255,255,255,0.7)" stroke-width="6" fill="none">
        <path d="M1120 400 L 1180 540" />
      </g>
    </g>
  <g font-family="Inter, system-ui, -apple-system, Segoe UI, Roboto, sans-serif" fill="#ffffff">
    <text x="80" y="120" font-size="28" letter-spacing="6" font-weight="600" opacity="0.85">BUSINESS</text>
    <text x="80" y="260" font-size="76" font-weight="800">Hosted vs. On-Premise</text>
    <text x="80" y="352" font-size="76" font-weight="800">VoIP: Which is Right for</text>
    <text x="80" y="444" font-size="76" font-weight="800">You?</text>
    <text x="80" y="820" font-size="28" font-weight="700" letter-spacing="4">VOIP CAT</text>
    <text x="80" y="855" font-size="20" opacity="0.85">voipcat.com · Global VoIP &amp; Call Center Provider</text>
  </g>
</svg>