<svg xmlns="http://www.w3.org/2000/svg" viewBox="0 0 1600 900" role="img" aria-label="SIP Trunk vs PRI: Which is Better for Your Business? - SIP Trunking cover image by VOIP CAT">
  <defs>
    <linearGradient id="bg" x1="0" y1="0" x2="1" y2="1">
      <stop offset="0" stop-color="#06b6d4"/>
      <stop offset="1" stop-color="#155e75"/>
    </linearGradient>
    <radialGradient id="glow" cx="0.78" cy="0.42" r="0.55">
      <stop offset="0" stop-color="rgba(255,255,255,0.35)"/>
      <stop offset="1" stop-color="rgba(255,255,255,0)"/>
    </radialGradient>
  </defs>
  <rect width="1600" height="900" fill="url(#bg)"/>
  <rect width="1600" height="900" fill="url(#glow)"/>
  <circle cx="1339.0" cy="476.4" r="1.7" fill="rgba(255,255,255,0.081)"/><circle cx="190.0" cy="595.9" r="1.2" fill="rgba(255,255,255,0.081)"/><circle cx="983.9" cy="649.4" r="2.3" fill="rgba(255,255,255,0.081)"/><circle cx="1097.8" cy="50.9" r="2.4" fill="rgba(255,255,255,0.081)"/><circle cx="772.3" cy="77.2" r="1.8" fill="rgba(255,255,255,0.081)"/><circle cx="1553.7" cy="597.9" r="2.5" fill="rgba(255,255,255,0.081)"/><circle cx="794.9" cy="220.4" r="1.3" fill="rgba(255,255,255,0.081)"/><circle cx="1569.3" cy="623.5" r="2.7" fill="rgba(255,255,255,0.081)"/><circle cx="1067.4" cy="231.7" r="1.3" fill="rgba(255,255,255,0.081)"/><circle cx="490.5" cy="582.8" r="1.4" fill="rgba(255,255,255,0.081)"/><circle cx="812.6" cy="840.8" r="1.6" fill="rgba(255,255,255,0.081)"/><circle cx="748.3" cy="104.7" r="2.5" fill="rgba(255,255,255,0.081)"/><circle cx="917.5" cy="668.6" r="2.4" fill="rgba(255,255,255,0.081)"/><circle cx="487.7" cy="256.8" r="2.5" fill="rgba(255,255,255,0.081)"/><circle cx="162.0" cy="591.6" r="2.7" fill="rgba(255,255,255,0.081)"/><circle cx="265.0" cy="445.0" r="1.9" fill="rgba(255,255,255,0.081)"/><circle cx="1194.8" cy="836.6" r="1.2" fill="rgba(255,255,255,0.081)"/><circle cx="1218.2" cy="653.0" r="1.8" fill="rgba(255,255,255,0.081)"/><circle cx="204.5" cy="144.5" r="2.4" fill="rgba(255,255,255,0.081)"/><circle cx="66.7" cy="173.6" r="2.5" fill="rgba(255,255,255,0.081)"/><circle cx="773.4" cy="427.2" r="2.5" fill="rgba(255,255,255,0.081)"/><circle cx="1419.7" cy="486.5" r="2.3" fill="rgba(255,255,255,0.081)"/><circle cx="160.7" cy="369.7" r="2.1" fill="rgba(255,255,255,0.081)"/><circle cx="1116.5" cy="689.1" r="1.8" fill="rgba(255,255,255,0.081)"/><circle cx="984.6" cy="110.6" r="1.1" fill="rgba(255,255,255,0.081)"/><circle cx="992.0" cy="534.8" r="2.8" fill="rgba(255,255,255,0.081)"/><circle cx="999.6" cy="589.7" r="1.6" fill="rgba(255,255,255,0.081)"/><circle cx="545.2" cy="420.2" r="1.6" fill="rgba(255,255,255,0.081)"/><circle cx="1350.3" cy="297.7" r="2.0" fill="rgba(255,255,255,0.081)"/><circle cx="197.1" cy="865.9" r="2.1" fill="rgba(255,255,255,0.081)"/><circle cx="557.9" cy="245.0" r="1.0" fill="rgba(255,255,255,0.081)"/><circle cx="895.7" cy="311.7" r="2.0" fill="rgba(255,255,255,0.081)"/><circle cx="1028.8" cy="51.6" r="2.2" fill="rgba(255,255,255,0.081)"/><circle cx="1441.4" cy="862.2" r="1.6" fill="rgba(255,255,255,0.081)"/><circle cx="785.5" cy="232.3" r="2.8" fill="rgba(255,255,255,0.081)"/><circle cx="311.3" cy="417.6" r="2.4" fill="rgba(255,255,255,0.081)"/><circle cx="1403.4" cy="661.3" r="2.9" fill="rgba(255,255,255,0.081)"/><circle cx="1140.7" cy="757.2" r="2.7" fill="rgba(255,255,255,0.081)"/><circle cx="180.0" cy="535.4" r="1.4" fill="rgba(255,255,255,0.081)"/><circle cx="1295.2" cy="628.3" r="2.3" fill="rgba(255,255,255,0.081)"/><circle cx="814.2" cy="899.6" r="1.1" fill="rgba(255,255,255,0.081)"/><circle cx="584.0" cy="879.8" r="2.8" fill="rgba(255,255,255,0.081)"/><circle cx="191.6" cy="253.6" r="2.0" fill="rgba(255,255,255,0.081)"/><circle cx="247.3" cy="890.5" r="1.2" fill="rgba(255,255,255,0.081)"/><circle cx="960.3" cy="337.3" r="1.9" fill="rgba(255,255,255,0.081)"/><circle cx="604.8" cy="309.4" r="1.5" fill="rgba(255,255,255,0.081)"/><circle cx="851.8" cy="458.7" r="2.2" fill="rgba(255,255,255,0.081)"/><circle cx="1250.7" cy="118.9" r="2.9" fill="rgba(255,255,255,0.081)"/><circle cx="1213.4" cy="18.6" r="1.2" fill="rgba(255,255,255,0.081)"/><circle cx="795.8" cy="568.9" r="1.1" fill="rgba(255,255,255,0.081)"/><circle cx="229.4" cy="743.2" r="2.3" fill="rgba(255,255,255,0.081)"/><circle cx="173.5" cy="137.5" r="2.3" fill="rgba(255,255,255,0.081)"/><circle cx="1499.5" cy="164.7" r="2.8" fill="rgba(255,255,255,0.081)"/><circle cx="8.3" cy="586.3" r="1.1" fill="rgba(255,255,255,0.081)"/><circle cx="812.3" cy="299.5" r="2.7" fill="rgba(255,255,255,0.081)"/><circle cx="1543.9" cy="149.7" r="2.8" fill="rgba(255,255,255,0.081)"/><circle cx="11.9" cy="552.6" r="1.4" fill="rgba(255,255,255,0.081)"/><circle cx="179.0" cy="261.6" r="1.2" fill="rgba(255,255,255,0.081)"/><circle cx="1018.0" cy="769.7" r="2.2" fill="rgba(255,255,255,0.081)"/><circle cx="281.0" cy="465.4" r="2.6" fill="rgba(255,255,255,0.081)"/>
  <g><line x1="1138" y1="241" x2="994" y2="305" stroke="rgba(255,255,255,0.35)" stroke-width="2"/><line x1="1138" y1="241" x2="1086" y2="268" stroke="rgba(255,255,255,0.35)" stroke-width="2"/><line x1="1138" y1="241" x2="1009" y2="320" stroke="rgba(255,255,255,0.35)" stroke-width="2"/><line x1="1138" y1="241" x2="1012" y2="326" stroke="rgba(255,255,255,0.35)" stroke-width="2"/><line x1="1138" y1="241" x2="1188" y2="321" stroke="rgba(255,255,255,0.35)" stroke-width="2"/><line x1="1100" y1="652" x2="1133" y2="543" stroke="rgba(255,255,255,0.35)" stroke-width="2"/><line x1="1100" y1="652" x2="1062" y2="658" stroke="rgba(255,255,255,0.35)" stroke-width="2"/><line x1="1100" y1="652" x2="1050" y2="562" stroke="rgba(255,255,255,0.35)" stroke-width="2"/><line x1="1100" y1="652" x2="1124" y2="575" stroke="rgba(255,255,255,0.35)" stroke-width="2"/><line x1="1100" y1="652" x2="1193" y2="658" stroke="rgba(255,255,255,0.35)" stroke-width="2"/><line x1="1268" y1="358" x2="1188" y2="321" stroke="rgba(255,255,255,0.35)" stroke-width="2"/><line x1="1268" y1="358" x2="1174" y2="431" stroke="rgba(255,255,255,0.35)" stroke-width="2"/><line x1="1133" y1="543" x2="1062" y2="658" stroke="rgba(255,255,255,0.35)" stroke-width="2"/><line x1="1133" y1="543" x2="1073" y2="445" stroke="rgba(255,255,255,0.35)" stroke-width="2"/><line x1="1133" y1="543" x2="1050" y2="562" stroke="rgba(255,255,255,0.35)" stroke-width="2"/><line x1="1133" y1="543" x2="1124" y2="575" stroke="rgba(255,255,255,0.35)" stroke-width="2"/><line x1="1133" y1="543" x2="1150" y2="469" stroke="rgba(255,255,255,0.35)" stroke-width="2"/><line x1="1133" y1="543" x2="1174" y2="431" stroke="rgba(255,255,255,0.35)" stroke-width="2"/><line x1="1133" y1="543" x2="1193" y2="658" stroke="rgba(255,255,255,0.35)" stroke-width="2"/><line x1="1062" y1="658" x2="1050" y2="562" stroke="rgba(255,255,255,0.35)" stroke-width="2"/><line x1="1062" y1="658" x2="1124" y2="575" stroke="rgba(255,255,255,0.35)" stroke-width="2"/><line x1="1062" y1="658" x2="1193" y2="658" stroke="rgba(255,255,255,0.35)" stroke-width="2"/><line x1="1073" y1="445" x2="953" y2="410" stroke="rgba(255,255,255,0.35)" stroke-width="2"/><line x1="1073" y1="445" x2="1050" y2="562" stroke="rgba(255,255,255,0.35)" stroke-width="2"/><line x1="1073" y1="445" x2="1009" y2="320" stroke="rgba(255,255,255,0.35)" stroke-width="2"/><line x1="1073" y1="445" x2="916" y2="420" stroke="rgba(255,255,255,0.35)" stroke-width="2"/><line x1="1073" y1="445" x2="1124" y2="575" stroke="rgba(255,255,255,0.35)" stroke-width="2"/><line x1="1073" y1="445" x2="1012" y2="326" stroke="rgba(255,255,255,0.35)" stroke-width="2"/><line x1="1073" y1="445" x2="1150" y2="469" stroke="rgba(255,255,255,0.35)" stroke-width="2"/><line x1="1073" y1="445" x2="1174" y2="431" stroke="rgba(255,255,255,0.35)" stroke-width="2"/><line x1="953" y1="410" x2="994" y2="305" stroke="rgba(255,255,255,0.35)" stroke-width="2"/><line x1="953" y1="410" x2="1009" y2="320" stroke="rgba(255,255,255,0.35)" stroke-width="2"/><line x1="953" y1="410" x2="916" y2="420" stroke="rgba(255,255,255,0.35)" stroke-width="2"/><line x1="953" y1="410" x2="1012" y2="326" stroke="rgba(255,255,255,0.35)" stroke-width="2"/><line x1="994" y1="305" x2="1086" y2="268" stroke="rgba(255,255,255,0.35)" stroke-width="2"/><line x1="994" y1="305" x2="1009" y2="320" stroke="rgba(255,255,255,0.35)" stroke-width="2"/><line x1="994" y1="305" x2="916" y2="420" stroke="rgba(255,255,255,0.35)" stroke-width="2"/><line x1="994" y1="305" x2="1012" y2="326" stroke="rgba(255,255,255,0.35)" stroke-width="2"/><line x1="1086" y1="268" x2="1009" y2="320" stroke="rgba(255,255,255,0.35)" stroke-width="2"/><line x1="1086" y1="268" x2="1012" y2="326" stroke="rgba(255,255,255,0.35)" stroke-width="2"/><line x1="1086" y1="268" x2="1188" y2="321" stroke="rgba(255,255,255,0.35)" stroke-width="2"/><line x1="1050" y1="562" x2="1124" y2="575" stroke="rgba(255,255,255,0.35)" stroke-width="2"/><line x1="1050" y1="562" x2="1150" y2="469" stroke="rgba(255,255,255,0.35)" stroke-width="2"/><line x1="1009" y1="320" x2="916" y2="420" stroke="rgba(255,255,255,0.35)" stroke-width="2"/><line x1="1009" y1="320" x2="1012" y2="326" stroke="rgba(255,255,255,0.35)" stroke-width="2"/><line x1="916" y1="420" x2="1012" y2="326" stroke="rgba(255,255,255,0.35)" stroke-width="2"/><line x1="1124" y1="575" x2="1150" y2="469" stroke="rgba(255,255,255,0.35)" stroke-width="2"/><line x1="1124" y1="575" x2="1174" y2="431" stroke="rgba(255,255,255,0.35)" stroke-width="2"/><line x1="1124" y1="575" x2="1193" y2="658" stroke="rgba(255,255,255,0.35)" stroke-width="2"/><line x1="1150" y1="469" x2="1188" y2="321" stroke="rgba(255,255,255,0.35)" stroke-width="2"/><line x1="1150" y1="469" x2="1174" y2="431" stroke="rgba(255,255,255,0.35)" stroke-width="2"/><line x1="1188" y1="321" x2="1174" y2="431" stroke="rgba(255,255,255,0.35)" stroke-width="2"/><circle cx="1138" cy="241" r="9" fill="rgba(255,255,255,0.95)"/><circle cx="1100" cy="652" r="9" fill="rgba(255,255,255,0.95)"/><circle cx="1268" cy="358" r="9" fill="rgba(255,255,255,0.95)"/><circle cx="1133" cy="543" r="9" fill="rgba(255,255,255,0.95)"/><circle cx="1062" cy="658" r="9" fill="rgba(255,255,255,0.95)"/><circle cx="1073" cy="445" r="9" fill="rgba(255,255,255,0.95)"/><circle cx="953" cy="410" r="9" fill="rgba(255,255,255,0.95)"/><circle cx="994" cy="305" r="9" fill="rgba(255,255,255,0.95)"/><circle cx="1086" cy="268" r="9" fill="rgba(255,255,255,0.95)"/><circle cx="1050" cy="562" r="9" fill="rgba(255,255,255,0.95)"/><circle cx="1009" cy="320" r="9" fill="rgba(255,255,255,0.95)"/><circle cx="916" cy="420" r="9" fill="rgba(255,255,255,0.95)"/><circle cx="1124" cy="575" r="9" fill="rgba(255,255,255,0.95)"/><circle cx="1012" cy="326" r="9" fill="rgba(255,255,255,0.95)"/><circle cx="1150" cy="469" r="9" fill="rgba(255,255,255,0.95)"/><circle cx="1188" cy="321" r="9" fill="rgba(255,255,255,0.95)"/><circle cx="1174" cy="431" r="9" fill="rgba(255,255,255,0.95)"/><circle cx="1193" cy="658" r="9" fill="rgba(255,255,255,0.95)"/></g>
  <g font-family="Inter, system-ui, -apple-system, Segoe UI, Roboto, sans-serif" fill="#ffffff">
    <text x="80" y="120" font-size="28" letter-spacing="6" font-weight="600" opacity="0.85">SIP TRUNKING</text>
    <text x="80" y="260" font-size="76" font-weight="800">SIP Trunk vs PRI: Which is</text>
    <text x="80" y="352" font-size="76" font-weight="800">Better for Your Business?</text>
    <text x="80" y="820" font-size="28" font-weight="700" letter-spacing="4">VOIP CAT</text>
    <text x="80" y="855" font-size="20" opacity="0.85">voipcat.com · Global VoIP &amp; Call Center Provider</text>
  </g>
</svg>