<svg xmlns="http://www.w3.org/2000/svg" viewBox="0 0 1600 900" role="img" aria-label="Top 10 Benefits of Switching Your Business to VoIP - Business cover image by VOIP CAT">
  <defs>
    <linearGradient id="bg" x1="0" y1="0" x2="1" y2="1">
      <stop offset="0" stop-color="#eab308"/>
      <stop offset="1" stop-color="#713f12"/>
    </linearGradient>
    <radialGradient id="glow" cx="0.78" cy="0.42" r="0.55">
      <stop offset="0" stop-color="rgba(255,255,255,0.35)"/>
      <stop offset="1" stop-color="rgba(255,255,255,0)"/>
    </radialGradient>
  </defs>
  <rect width="1600" height="900" fill="url(#bg)"/>
  <rect width="1600" height="900" fill="url(#glow)"/>
  <circle cx="324.8" cy="667.6" r="2.9" fill="rgba(255,255,255,0.071)"/><circle cx="514.8" cy="377.8" r="2.3" fill="rgba(255,255,255,0.071)"/><circle cx="1468.6" cy="719.5" r="1.7" fill="rgba(255,255,255,0.071)"/><circle cx="1222.1" cy="174.9" r="1.5" fill="rgba(255,255,255,0.071)"/><circle cx="164.5" cy="367.5" r="2.0" fill="rgba(255,255,255,0.071)"/><circle cx="1550.4" cy="652.8" r="2.2" fill="rgba(255,255,255,0.071)"/><circle cx="593.6" cy="421.7" r="1.5" fill="rgba(255,255,255,0.071)"/><circle cx="472.0" cy="688.6" r="1.6" fill="rgba(255,255,255,0.071)"/><circle cx="951.5" cy="632.0" r="1.3" fill="rgba(255,255,255,0.071)"/><circle cx="32.1" cy="529.9" r="1.2" fill="rgba(255,255,255,0.071)"/><circle cx="406.0" cy="847.9" r="2.2" fill="rgba(255,255,255,0.071)"/><circle cx="1322.6" cy="771.0" r="1.1" fill="rgba(255,255,255,0.071)"/><circle cx="350.2" cy="129.6" r="1.2" fill="rgba(255,255,255,0.071)"/><circle cx="1097.9" cy="215.2" r="2.8" fill="rgba(255,255,255,0.071)"/><circle cx="1554.2" cy="152.6" r="2.7" fill="rgba(255,255,255,0.071)"/><circle cx="585.0" cy="393.3" r="2.7" fill="rgba(255,255,255,0.071)"/><circle cx="78.5" cy="214.7" r="3.0" fill="rgba(255,255,255,0.071)"/><circle cx="1486.6" cy="784.2" r="2.4" fill="rgba(255,255,255,0.071)"/><circle cx="403.4" cy="488.8" r="3.0" fill="rgba(255,255,255,0.071)"/><circle cx="703.7" cy="633.9" r="1.5" fill="rgba(255,255,255,0.071)"/><circle cx="453.7" cy="681.9" r="2.7" fill="rgba(255,255,255,0.071)"/><circle cx="977.3" cy="614.0" r="2.1" fill="rgba(255,255,255,0.071)"/><circle cx="1088.2" cy="626.1" r="1.7" fill="rgba(255,255,255,0.071)"/><circle cx="1138.9" cy="668.8" r="1.6" fill="rgba(255,255,255,0.071)"/><circle cx="180.5" cy="291.5" r="1.4" fill="rgba(255,255,255,0.071)"/><circle cx="256.4" cy="783.7" r="2.6" fill="rgba(255,255,255,0.071)"/><circle cx="832.8" cy="882.3" r="1.6" fill="rgba(255,255,255,0.071)"/><circle cx="636.4" cy="449.5" r="1.2" fill="rgba(255,255,255,0.071)"/><circle cx="1235.9" cy="863.1" r="2.1" fill="rgba(255,255,255,0.071)"/><circle cx="1035.7" cy="789.4" r="2.4" fill="rgba(255,255,255,0.071)"/><circle cx="1275.6" cy="237.8" r="1.0" fill="rgba(255,255,255,0.071)"/><circle cx="1091.1" cy="429.1" r="2.1" fill="rgba(255,255,255,0.071)"/><circle cx="739.3" cy="724.8" r="1.9" fill="rgba(255,255,255,0.071)"/><circle cx="424.5" cy="154.5" r="2.6" fill="rgba(255,255,255,0.071)"/><circle cx="672.3" cy="540.8" r="1.5" fill="rgba(255,255,255,0.071)"/><circle cx="649.0" cy="119.6" r="2.6" fill="rgba(255,255,255,0.071)"/><circle cx="398.5" cy="773.6" r="2.6" fill="rgba(255,255,255,0.071)"/><circle cx="119.9" cy="169.2" r="1.0" fill="rgba(255,255,255,0.071)"/><circle cx="1399.4" cy="237.6" r="1.4" fill="rgba(255,255,255,0.071)"/><circle cx="743.5" cy="18.3" r="2.7" fill="rgba(255,255,255,0.071)"/><circle cx="1261.0" cy="489.1" r="1.2" fill="rgba(255,255,255,0.071)"/><circle cx="1409.6" cy="190.8" r="2.5" fill="rgba(255,255,255,0.071)"/><circle cx="151.4" cy="708.8" r="1.3" fill="rgba(255,255,255,0.071)"/><circle cx="896.8" cy="74.8" r="2.9" fill="rgba(255,255,255,0.071)"/><circle cx="68.7" cy="348.2" r="1.2" fill="rgba(255,255,255,0.071)"/><circle cx="160.3" cy="158.0" r="2.3" fill="rgba(255,255,255,0.071)"/><circle cx="1230.2" cy="699.7" r="1.7" fill="rgba(255,255,255,0.071)"/><circle cx="646.8" cy="868.9" r="3.0" fill="rgba(255,255,255,0.071)"/><circle cx="442.7" cy="626.6" r="2.5" fill="rgba(255,255,255,0.071)"/><circle cx="180.9" cy="607.2" r="2.4" fill="rgba(255,255,255,0.071)"/><circle cx="120.3" cy="391.2" r="2.8" fill="rgba(255,255,255,0.071)"/><circle cx="781.6" cy="335.8" r="2.9" fill="rgba(255,255,255,0.071)"/><circle cx="1287.8" cy="208.3" r="1.4" fill="rgba(255,255,255,0.071)"/><circle cx="1340.6" cy="136.2" r="1.1" fill="rgba(255,255,255,0.071)"/><circle cx="748.9" cy="484.1" r="1.4" fill="rgba(255,255,255,0.071)"/><circle cx="1129.7" cy="98.4" r="2.7" fill="rgba(255,255,255,0.071)"/><circle cx="1139.4" cy="14.5" r="1.6" fill="rgba(255,255,255,0.071)"/><circle cx="1221.5" cy="669.4" r="1.6" fill="rgba(255,255,255,0.071)"/><circle cx="469.7" cy="700.8" r="2.8" fill="rgba(255,255,255,0.071)"/><circle cx="295.8" cy="779.7" r="1.4" fill="rgba(255,255,255,0.071)"/>
  
    <g><rect x="860" y="447.45084929745644" width="56" height="192.54915070254356" rx="6" fill="rgba(255,255,255,0.92)"/><rect x="940" y="443.41179018840194" width="56" height="196.58820981159806" rx="6" fill="rgba(255,255,255,0.92)"/><rect x="1020" y="426.2139158928767" width="56" height="213.78608410712332" rx="6" fill="rgba(255,255,255,0.92)"/><rect x="1100" y="430.1653200853616" width="56" height="209.8346799146384" rx="6" fill="rgba(255,255,255,0.92)"/><rect x="1180" y="372.8291268553585" width="56" height="267.1708731446415" rx="6" fill="rgba(255,255,255,0.92)"/><rect x="1260" y="441.63509456440806" width="56" height="198.36490543559194" rx="6" fill="rgba(255,255,255,0.92)"/></g>
    <g stroke="rgba(255,255,255,0.55)" stroke-width="3" fill="none">
      <path d="M860 360 L 940 300 L 1020 320 L 1100 240 L 1180 260 L 1260 200 L 1320 180" />
    </g>
    <g fill="rgba(255,255,255,0.95)">
      <circle cx="940" cy="300" r="7"/><circle cx="1020" cy="320" r="7"/><circle cx="1100" cy="240" r="7"/><circle cx="1180" cy="260" r="7"/><circle cx="1260" cy="200" r="7"/><circle cx="1320" cy="180" r="7"/>
    </g>
  <g font-family="Inter, system-ui, -apple-system, Segoe UI, Roboto, sans-serif" fill="#ffffff">
    <text x="80" y="120" font-size="28" letter-spacing="6" font-weight="600" opacity="0.85">BUSINESS</text>
    <text x="80" y="260" font-size="76" font-weight="800">Top 10 Benefits of</text>
    <text x="80" y="352" font-size="76" font-weight="800">Switching Your Business to</text>
    <text x="80" y="444" font-size="76" font-weight="800">VoIP</text>
    <text x="80" y="820" font-size="28" font-weight="700" letter-spacing="4">VOIP CAT</text>
    <text x="80" y="855" font-size="20" opacity="0.85">voipcat.com · Global VoIP &amp; Call Center Provider</text>
  </g>
</svg>