<svg xmlns="http://www.w3.org/2000/svg" viewBox="0 0 1600 900" role="img" aria-label="VoIP Security: How to Protect Your Business Communications - Security cover image by VOIP CAT">
  <defs>
    <linearGradient id="bg" x1="0" y1="0" x2="1" y2="1">
      <stop offset="0" stop-color="#dc2626"/>
      <stop offset="1" stop-color="#991b1b"/>
    </linearGradient>
    <radialGradient id="glow" cx="0.78" cy="0.42" r="0.55">
      <stop offset="0" stop-color="rgba(255,255,255,0.35)"/>
      <stop offset="1" stop-color="rgba(255,255,255,0)"/>
    </radialGradient>
  </defs>
  <rect width="1600" height="900" fill="url(#bg)"/>
  <rect width="1600" height="900" fill="url(#glow)"/>
  <circle cx="361.7" cy="33.0" r="1.8" fill="rgba(255,255,255,0.042)"/><circle cx="1248.4" cy="347.9" r="2.5" fill="rgba(255,255,255,0.042)"/><circle cx="1092.8" cy="736.6" r="2.8" fill="rgba(255,255,255,0.042)"/><circle cx="118.0" cy="860.0" r="1.8" fill="rgba(255,255,255,0.042)"/><circle cx="1123.9" cy="388.6" r="1.5" fill="rgba(255,255,255,0.042)"/><circle cx="76.5" cy="669.5" r="2.4" fill="rgba(255,255,255,0.042)"/><circle cx="473.5" cy="731.3" r="1.6" fill="rgba(255,255,255,0.042)"/><circle cx="391.7" cy="627.3" r="1.9" fill="rgba(255,255,255,0.042)"/><circle cx="682.7" cy="160.0" r="1.7" fill="rgba(255,255,255,0.042)"/><circle cx="1137.1" cy="262.9" r="1.6" fill="rgba(255,255,255,0.042)"/><circle cx="1071.8" cy="424.4" r="1.7" fill="rgba(255,255,255,0.042)"/><circle cx="679.5" cy="143.8" r="1.6" fill="rgba(255,255,255,0.042)"/><circle cx="1040.5" cy="286.6" r="1.9" fill="rgba(255,255,255,0.042)"/><circle cx="533.1" cy="862.1" r="2.9" fill="rgba(255,255,255,0.042)"/><circle cx="489.3" cy="479.9" r="1.2" fill="rgba(255,255,255,0.042)"/><circle cx="785.1" cy="878.1" r="2.2" fill="rgba(255,255,255,0.042)"/><circle cx="633.2" cy="397.0" r="1.0" fill="rgba(255,255,255,0.042)"/><circle cx="833.9" cy="166.5" r="1.7" fill="rgba(255,255,255,0.042)"/><circle cx="53.7" cy="689.8" r="2.6" fill="rgba(255,255,255,0.042)"/><circle cx="836.6" cy="506.8" r="2.2" fill="rgba(255,255,255,0.042)"/><circle cx="106.9" cy="215.5" r="2.2" fill="rgba(255,255,255,0.042)"/><circle cx="317.0" cy="89.1" r="2.6" fill="rgba(255,255,255,0.042)"/><circle cx="1356.1" cy="515.0" r="1.5" fill="rgba(255,255,255,0.042)"/><circle cx="1455.9" cy="159.5" r="1.6" fill="rgba(255,255,255,0.042)"/><circle cx="1101.7" cy="734.1" r="1.1" fill="rgba(255,255,255,0.042)"/><circle cx="714.0" cy="53.8" r="2.1" fill="rgba(255,255,255,0.042)"/><circle cx="1453.0" cy="355.7" r="1.2" fill="rgba(255,255,255,0.042)"/><circle cx="1111.2" cy="885.1" r="1.4" fill="rgba(255,255,255,0.042)"/><circle cx="1504.0" cy="622.2" r="2.7" fill="rgba(255,255,255,0.042)"/><circle cx="1107.1" cy="330.5" r="2.2" fill="rgba(255,255,255,0.042)"/><circle cx="1288.1" cy="616.5" r="2.2" fill="rgba(255,255,255,0.042)"/><circle cx="406.3" cy="282.7" r="2.9" fill="rgba(255,255,255,0.042)"/><circle cx="572.6" cy="584.4" r="1.3" fill="rgba(255,255,255,0.042)"/><circle cx="1358.8" cy="432.9" r="1.6" fill="rgba(255,255,255,0.042)"/><circle cx="1115.9" cy="655.4" r="1.1" fill="rgba(255,255,255,0.042)"/><circle cx="1269.1" cy="546.8" r="2.6" fill="rgba(255,255,255,0.042)"/><circle cx="847.2" cy="695.8" r="1.9" fill="rgba(255,255,255,0.042)"/><circle cx="1129.6" cy="545.5" r="1.0" fill="rgba(255,255,255,0.042)"/><circle cx="493.5" cy="392.9" r="2.4" fill="rgba(255,255,255,0.042)"/><circle cx="145.5" cy="477.8" r="2.0" fill="rgba(255,255,255,0.042)"/><circle cx="1294.9" cy="773.6" r="2.6" fill="rgba(255,255,255,0.042)"/><circle cx="820.2" cy="12.3" r="1.6" fill="rgba(255,255,255,0.042)"/><circle cx="1122.7" cy="468.7" r="2.2" fill="rgba(255,255,255,0.042)"/><circle cx="118.3" cy="414.4" r="1.6" fill="rgba(255,255,255,0.042)"/><circle cx="1579.2" cy="898.7" r="1.4" fill="rgba(255,255,255,0.042)"/><circle cx="1267.6" cy="7.0" r="2.6" fill="rgba(255,255,255,0.042)"/><circle cx="726.3" cy="418.1" r="2.8" fill="rgba(255,255,255,0.042)"/><circle cx="1025.9" cy="569.5" r="2.5" fill="rgba(255,255,255,0.042)"/><circle cx="1379.5" cy="698.4" r="2.8" fill="rgba(255,255,255,0.042)"/><circle cx="628.4" cy="402.0" r="1.3" fill="rgba(255,255,255,0.042)"/><circle cx="70.4" cy="732.5" r="1.1" fill="rgba(255,255,255,0.042)"/><circle cx="1063.0" cy="872.2" r="2.1" fill="rgba(255,255,255,0.042)"/><circle cx="96.6" cy="722.1" r="1.1" fill="rgba(255,255,255,0.042)"/><circle cx="823.9" cy="58.5" r="1.6" fill="rgba(255,255,255,0.042)"/><circle cx="1496.6" cy="393.9" r="2.0" fill="rgba(255,255,255,0.042)"/><circle cx="607.6" cy="415.8" r="2.3" fill="rgba(255,255,255,0.042)"/><circle cx="26.2" cy="287.3" r="2.1" fill="rgba(255,255,255,0.042)"/><circle cx="928.5" cy="85.3" r="1.8" fill="rgba(255,255,255,0.042)"/><circle cx="1487.9" cy="693.1" r="1.3" fill="rgba(255,255,255,0.042)"/><circle cx="87.8" cy="222.0" r="1.8" fill="rgba(255,255,255,0.042)"/>
  
    <g transform="translate(1100 450)" fill="rgba(255,255,255,0.18)" stroke="rgba(255,255,255,0.95)" stroke-width="6" stroke-linejoin="round">
      <path d="M0 -200 L 170 -130 L 170 30 Q 170 170 0 230 Q -170 170 -170 30 L -170 -130 Z" />
      <path d="M -70 0 L -20 60 L 80 -60" stroke="rgba(255,255,255,0.95)" stroke-width="14" fill="none" stroke-linecap="round"/>
    </g>
  <g font-family="Inter, system-ui, -apple-system, Segoe UI, Roboto, sans-serif" fill="#ffffff">
    <text x="80" y="120" font-size="28" letter-spacing="6" font-weight="600" opacity="0.85">SECURITY</text>
    <text x="80" y="260" font-size="76" font-weight="800">VoIP Security: How to</text>
    <text x="80" y="352" font-size="76" font-weight="800">Protect Your Business</text>
    <text x="80" y="444" font-size="76" font-weight="800">Communications</text>
    <text x="80" y="820" font-size="28" font-weight="700" letter-spacing="4">VOIP CAT</text>
    <text x="80" y="855" font-size="20" opacity="0.85">voipcat.com · Global VoIP &amp; Call Center Provider</text>
  </g>
</svg>