<svg xmlns="http://www.w3.org/2000/svg" viewBox="0 0 1600 900" role="img" aria-label="Securing Your VoIP Network: Essential Best Practices - Security cover image by VOIP CAT">
  <defs>
    <linearGradient id="bg" x1="0" y1="0" x2="1" y2="1">
      <stop offset="0" stop-color="#ef4444"/>
      <stop offset="1" stop-color="#7f1d1d"/>
    </linearGradient>
    <radialGradient id="glow" cx="0.78" cy="0.42" r="0.55">
      <stop offset="0" stop-color="rgba(255,255,255,0.35)"/>
      <stop offset="1" stop-color="rgba(255,255,255,0)"/>
    </radialGradient>
  </defs>
  <rect width="1600" height="900" fill="url(#bg)"/>
  <rect width="1600" height="900" fill="url(#glow)"/>
  <circle cx="715.0" cy="271.5" r="2.9" fill="rgba(255,255,255,0.045)"/><circle cx="9.4" cy="384.1" r="1.9" fill="rgba(255,255,255,0.045)"/><circle cx="985.8" cy="775.2" r="2.1" fill="rgba(255,255,255,0.045)"/><circle cx="147.5" cy="764.4" r="2.0" fill="rgba(255,255,255,0.045)"/><circle cx="687.7" cy="157.1" r="2.3" fill="rgba(255,255,255,0.045)"/><circle cx="1209.2" cy="407.5" r="2.7" fill="rgba(255,255,255,0.045)"/><circle cx="568.9" cy="157.7" r="2.2" fill="rgba(255,255,255,0.045)"/><circle cx="869.0" cy="565.4" r="2.2" fill="rgba(255,255,255,0.045)"/><circle cx="1124.6" cy="880.4" r="2.6" fill="rgba(255,255,255,0.045)"/><circle cx="1540.1" cy="147.1" r="1.1" fill="rgba(255,255,255,0.045)"/><circle cx="643.9" cy="519.5" r="2.0" fill="rgba(255,255,255,0.045)"/><circle cx="573.6" cy="385.5" r="1.2" fill="rgba(255,255,255,0.045)"/><circle cx="674.4" cy="40.5" r="1.4" fill="rgba(255,255,255,0.045)"/><circle cx="1082.9" cy="103.2" r="1.9" fill="rgba(255,255,255,0.045)"/><circle cx="1105.8" cy="200.7" r="2.5" fill="rgba(255,255,255,0.045)"/><circle cx="1235.1" cy="204.3" r="1.9" fill="rgba(255,255,255,0.045)"/><circle cx="80.1" cy="220.7" r="1.8" fill="rgba(255,255,255,0.045)"/><circle cx="1348.3" cy="113.6" r="1.4" fill="rgba(255,255,255,0.045)"/><circle cx="643.5" cy="519.8" r="2.8" fill="rgba(255,255,255,0.045)"/><circle cx="588.5" cy="593.1" r="2.1" fill="rgba(255,255,255,0.045)"/><circle cx="564.0" cy="382.0" r="2.3" fill="rgba(255,255,255,0.045)"/><circle cx="324.5" cy="678.9" r="2.2" fill="rgba(255,255,255,0.045)"/><circle cx="1552.6" cy="70.6" r="2.7" fill="rgba(255,255,255,0.045)"/><circle cx="17.4" cy="25.4" r="1.9" fill="rgba(255,255,255,0.045)"/><circle cx="1467.5" cy="612.9" r="1.0" fill="rgba(255,255,255,0.045)"/><circle cx="609.3" cy="709.1" r="1.6" fill="rgba(255,255,255,0.045)"/><circle cx="985.5" cy="545.9" r="2.8" fill="rgba(255,255,255,0.045)"/><circle cx="695.2" cy="860.0" r="1.7" fill="rgba(255,255,255,0.045)"/><circle cx="1583.1" cy="592.2" r="2.0" fill="rgba(255,255,255,0.045)"/><circle cx="659.6" cy="151.4" r="2.5" fill="rgba(255,255,255,0.045)"/><circle cx="445.8" cy="629.5" r="1.5" fill="rgba(255,255,255,0.045)"/><circle cx="812.6" cy="604.2" r="1.5" fill="rgba(255,255,255,0.045)"/><circle cx="1442.2" cy="560.7" r="1.9" fill="rgba(255,255,255,0.045)"/><circle cx="41.9" cy="552.8" r="2.1" fill="rgba(255,255,255,0.045)"/><circle cx="1597.5" cy="47.5" r="1.8" fill="rgba(255,255,255,0.045)"/><circle cx="872.1" cy="775.1" r="1.2" fill="rgba(255,255,255,0.045)"/><circle cx="700.0" cy="564.3" r="1.7" fill="rgba(255,255,255,0.045)"/><circle cx="612.6" cy="599.7" r="1.7" fill="rgba(255,255,255,0.045)"/><circle cx="127.2" cy="16.2" r="1.7" fill="rgba(255,255,255,0.045)"/><circle cx="824.3" cy="811.6" r="2.9" fill="rgba(255,255,255,0.045)"/><circle cx="12.3" cy="267.0" r="2.5" fill="rgba(255,255,255,0.045)"/><circle cx="121.1" cy="676.3" r="1.9" fill="rgba(255,255,255,0.045)"/><circle cx="35.9" cy="531.4" r="1.9" fill="rgba(255,255,255,0.045)"/><circle cx="350.2" cy="707.5" r="2.5" fill="rgba(255,255,255,0.045)"/><circle cx="384.3" cy="95.0" r="1.6" fill="rgba(255,255,255,0.045)"/><circle cx="257.1" cy="194.3" r="1.2" fill="rgba(255,255,255,0.045)"/><circle cx="178.6" cy="388.7" r="2.7" fill="rgba(255,255,255,0.045)"/><circle cx="367.7" cy="652.2" r="2.9" fill="rgba(255,255,255,0.045)"/><circle cx="8.8" cy="466.4" r="2.5" fill="rgba(255,255,255,0.045)"/><circle cx="814.6" cy="487.1" r="2.5" fill="rgba(255,255,255,0.045)"/><circle cx="392.5" cy="802.4" r="1.3" fill="rgba(255,255,255,0.045)"/><circle cx="1555.4" cy="105.7" r="2.0" fill="rgba(255,255,255,0.045)"/><circle cx="851.0" cy="432.8" r="1.5" fill="rgba(255,255,255,0.045)"/><circle cx="324.0" cy="503.7" r="1.5" fill="rgba(255,255,255,0.045)"/><circle cx="389.4" cy="888.1" r="2.1" fill="rgba(255,255,255,0.045)"/><circle cx="1242.8" cy="572.2" r="2.1" fill="rgba(255,255,255,0.045)"/><circle cx="78.0" cy="701.6" r="2.8" fill="rgba(255,255,255,0.045)"/><circle cx="1299.7" cy="551.5" r="1.5" fill="rgba(255,255,255,0.045)"/><circle cx="1259.8" cy="59.3" r="2.3" fill="rgba(255,255,255,0.045)"/><circle cx="233.4" cy="622.3" r="1.8" fill="rgba(255,255,255,0.045)"/>
  
    <g transform="translate(1100 450)" fill="rgba(255,255,255,0.95)" stroke="none">
      <rect x="-110" y="-30" width="220" height="200" rx="20"/>
      <rect x="-22" y="50" width="44" height="80" rx="12" fill="rgba(0,0,0,0.35)"/>
    </g>
    <g transform="translate(1100 450)" fill="none" stroke="rgba(255,255,255,0.95)" stroke-width="14" stroke-linecap="round">
      <path d="M-70 -30 v -50 a 70 70 0 0 1 140 0 v 50"/>
    </g>
  <g font-family="Inter, system-ui, -apple-system, Segoe UI, Roboto, sans-serif" fill="#ffffff">
    <text x="80" y="120" font-size="28" letter-spacing="6" font-weight="600" opacity="0.85">SECURITY</text>
    <text x="80" y="260" font-size="76" font-weight="800">Securing Your VoIP</text>
    <text x="80" y="352" font-size="76" font-weight="800">Network: Essential Best</text>
    <text x="80" y="444" font-size="76" font-weight="800">Practices</text>
    <text x="80" y="820" font-size="28" font-weight="700" letter-spacing="4">VOIP CAT</text>
    <text x="80" y="855" font-size="20" opacity="0.85">voipcat.com · Global VoIP &amp; Call Center Provider</text>
  </g>
</svg>