<svg xmlns="http://www.w3.org/2000/svg" viewBox="0 0 1600 900" role="img" aria-label="The Evolution of VoIP: From Experimental Tech to Business Standard - Technology cover image by VOIP CAT">
  <defs>
    <linearGradient id="bg" x1="0" y1="0" x2="1" y2="1">
      <stop offset="0" stop-color="#6366f1"/>
      <stop offset="1" stop-color="#312e81"/>
    </linearGradient>
    <radialGradient id="glow" cx="0.78" cy="0.42" r="0.55">
      <stop offset="0" stop-color="rgba(255,255,255,0.35)"/>
      <stop offset="1" stop-color="rgba(255,255,255,0)"/>
    </radialGradient>
  </defs>
  <rect width="1600" height="900" fill="url(#bg)"/>
  <rect width="1600" height="900" fill="url(#glow)"/>
  <circle cx="479.6" cy="96.8" r="2.6" fill="rgba(255,255,255,0.047)"/><circle cx="900.1" cy="11.0" r="2.5" fill="rgba(255,255,255,0.047)"/><circle cx="1489.8" cy="546.9" r="2.1" fill="rgba(255,255,255,0.047)"/><circle cx="117.4" cy="230.9" r="1.2" fill="rgba(255,255,255,0.047)"/><circle cx="404.2" cy="25.5" r="1.1" fill="rgba(255,255,255,0.047)"/><circle cx="962.8" cy="742.6" r="2.1" fill="rgba(255,255,255,0.047)"/><circle cx="781.4" cy="756.8" r="1.1" fill="rgba(255,255,255,0.047)"/><circle cx="886.8" cy="81.4" r="2.2" fill="rgba(255,255,255,0.047)"/><circle cx="1195.1" cy="415.1" r="2.0" fill="rgba(255,255,255,0.047)"/><circle cx="165.9" cy="346.0" r="2.1" fill="rgba(255,255,255,0.047)"/><circle cx="761.8" cy="807.4" r="2.3" fill="rgba(255,255,255,0.047)"/><circle cx="794.4" cy="542.0" r="2.1" fill="rgba(255,255,255,0.047)"/><circle cx="1033.2" cy="763.9" r="1.8" fill="rgba(255,255,255,0.047)"/><circle cx="1596.4" cy="689.4" r="1.1" fill="rgba(255,255,255,0.047)"/><circle cx="642.1" cy="140.3" r="1.1" fill="rgba(255,255,255,0.047)"/><circle cx="65.1" cy="592.1" r="1.3" fill="rgba(255,255,255,0.047)"/><circle cx="1593.6" cy="186.9" r="1.6" fill="rgba(255,255,255,0.047)"/><circle cx="901.7" cy="831.4" r="1.9" fill="rgba(255,255,255,0.047)"/><circle cx="854.5" cy="413.6" r="3.0" fill="rgba(255,255,255,0.047)"/><circle cx="913.3" cy="183.9" r="1.9" fill="rgba(255,255,255,0.047)"/><circle cx="47.2" cy="843.1" r="2.2" fill="rgba(255,255,255,0.047)"/><circle cx="100.7" cy="491.7" r="1.9" fill="rgba(255,255,255,0.047)"/><circle cx="1362.2" cy="267.3" r="2.6" fill="rgba(255,255,255,0.047)"/><circle cx="1397.4" cy="668.7" r="1.8" fill="rgba(255,255,255,0.047)"/><circle cx="1369.7" cy="229.1" r="2.9" fill="rgba(255,255,255,0.047)"/><circle cx="908.7" cy="574.1" r="1.8" fill="rgba(255,255,255,0.047)"/><circle cx="966.6" cy="272.9" r="1.9" fill="rgba(255,255,255,0.047)"/><circle cx="935.8" cy="244.4" r="1.4" fill="rgba(255,255,255,0.047)"/><circle cx="310.3" cy="3.2" r="2.9" fill="rgba(255,255,255,0.047)"/><circle cx="1324.4" cy="131.4" r="2.7" fill="rgba(255,255,255,0.047)"/><circle cx="580.5" cy="717.9" r="1.8" fill="rgba(255,255,255,0.047)"/><circle cx="586.5" cy="224.5" r="2.3" fill="rgba(255,255,255,0.047)"/><circle cx="1002.7" cy="440.1" r="1.1" fill="rgba(255,255,255,0.047)"/><circle cx="1514.8" cy="262.5" r="2.3" fill="rgba(255,255,255,0.047)"/><circle cx="561.2" cy="176.8" r="2.1" fill="rgba(255,255,255,0.047)"/><circle cx="887.1" cy="679.0" r="2.9" fill="rgba(255,255,255,0.047)"/><circle cx="1308.7" cy="877.3" r="1.7" fill="rgba(255,255,255,0.047)"/><circle cx="702.5" cy="505.1" r="2.4" fill="rgba(255,255,255,0.047)"/><circle cx="1490.4" cy="154.9" r="2.1" fill="rgba(255,255,255,0.047)"/><circle cx="849.7" cy="580.5" r="1.9" fill="rgba(255,255,255,0.047)"/><circle cx="614.8" cy="519.9" r="1.7" fill="rgba(255,255,255,0.047)"/><circle cx="668.9" cy="258.5" r="1.7" fill="rgba(255,255,255,0.047)"/><circle cx="222.4" cy="405.7" r="1.6" fill="rgba(255,255,255,0.047)"/><circle cx="1332.1" cy="182.1" r="1.0" fill="rgba(255,255,255,0.047)"/><circle cx="204.6" cy="525.5" r="1.3" fill="rgba(255,255,255,0.047)"/><circle cx="616.1" cy="93.8" r="1.5" fill="rgba(255,255,255,0.047)"/><circle cx="1173.2" cy="416.0" r="2.3" fill="rgba(255,255,255,0.047)"/><circle cx="1062.5" cy="310.4" r="2.6" fill="rgba(255,255,255,0.047)"/><circle cx="1342.7" cy="756.7" r="3.0" fill="rgba(255,255,255,0.047)"/><circle cx="878.2" cy="814.1" r="1.2" fill="rgba(255,255,255,0.047)"/><circle cx="425.2" cy="399.0" r="2.2" fill="rgba(255,255,255,0.047)"/><circle cx="67.0" cy="728.1" r="2.2" fill="rgba(255,255,255,0.047)"/><circle cx="1505.5" cy="766.8" r="2.2" fill="rgba(255,255,255,0.047)"/><circle cx="1070.3" cy="664.6" r="2.3" fill="rgba(255,255,255,0.047)"/><circle cx="1165.1" cy="532.7" r="1.7" fill="rgba(255,255,255,0.047)"/><circle cx="642.2" cy="888.8" r="1.4" fill="rgba(255,255,255,0.047)"/><circle cx="66.6" cy="319.2" r="2.6" fill="rgba(255,255,255,0.047)"/><circle cx="484.1" cy="9.9" r="2.2" fill="rgba(255,255,255,0.047)"/><circle cx="683.8" cy="328.4" r="1.1" fill="rgba(255,255,255,0.047)"/><circle cx="1203.4" cy="598.4" r="1.6" fill="rgba(255,255,255,0.047)"/>
  
    <g stroke="rgba(255,255,255,0.85)" stroke-width="4" fill="none">
      <line x1="820" y1="450" x2="1380" y2="450"/>
    </g>
    <g fill="rgba(255,255,255,0.95)" font-family="Inter, system-ui, sans-serif" font-size="22">
      <circle cx="820" cy="450" r="12"/><text x="820" y="500" text-anchor="middle" fill="rgba(255,255,255,0.85)">1995</text><circle cx="960" cy="450" r="12"/><text x="960" y="500" text-anchor="middle" fill="rgba(255,255,255,0.85)">2003</text><circle cx="1100" cy="450" r="12"/><text x="1100" y="500" text-anchor="middle" fill="rgba(255,255,255,0.85)">2010</text><circle cx="1240" cy="450" r="12"/><text x="1240" y="500" text-anchor="middle" fill="rgba(255,255,255,0.85)">2018</text><circle cx="1380" cy="450" r="12"/><text x="1380" y="500" text-anchor="middle" fill="rgba(255,255,255,0.85)">2026</text>
    </g>
  <g font-family="Inter, system-ui, -apple-system, Segoe UI, Roboto, sans-serif" fill="#ffffff">
    <text x="80" y="120" font-size="28" letter-spacing="6" font-weight="600" opacity="0.85">TECHNOLOGY</text>
    <text x="80" y="260" font-size="76" font-weight="800">The Evolution of VoIP:</text>
    <text x="80" y="352" font-size="76" font-weight="800">From Experimental Tech to</text>
    <text x="80" y="444" font-size="76" font-weight="800">Business Standard</text>
    <text x="80" y="820" font-size="28" font-weight="700" letter-spacing="4">VOIP CAT</text>
    <text x="80" y="855" font-size="20" opacity="0.85">voipcat.com · Global VoIP &amp; Call Center Provider</text>
  </g>
</svg>