<svg xmlns="http://www.w3.org/2000/svg" viewBox="0 0 1600 900" role="img" aria-label="VoIP Technology Guide: Understanding Modern Voice Communication - Technology cover image by VOIP CAT">
  <defs>
    <linearGradient id="bg" x1="0" y1="0" x2="1" y2="1">
      <stop offset="0" stop-color="#6366f1"/>
      <stop offset="1" stop-color="#312e81"/>
    </linearGradient>
    <radialGradient id="glow" cx="0.78" cy="0.42" r="0.55">
      <stop offset="0" stop-color="rgba(255,255,255,0.35)"/>
      <stop offset="1" stop-color="rgba(255,255,255,0)"/>
    </radialGradient>
  </defs>
  <rect width="1600" height="900" fill="url(#bg)"/>
  <rect width="1600" height="900" fill="url(#glow)"/>
  <circle cx="688.9" cy="671.2" r="3.0" fill="rgba(255,255,255,0.048)"/><circle cx="301.6" cy="282.7" r="1.6" fill="rgba(255,255,255,0.048)"/><circle cx="193.1" cy="314.9" r="2.7" fill="rgba(255,255,255,0.048)"/><circle cx="892.6" cy="119.0" r="1.9" fill="rgba(255,255,255,0.048)"/><circle cx="349.1" cy="327.9" r="2.9" fill="rgba(255,255,255,0.048)"/><circle cx="1386.4" cy="198.3" r="1.9" fill="rgba(255,255,255,0.048)"/><circle cx="1561.2" cy="699.8" r="2.2" fill="rgba(255,255,255,0.048)"/><circle cx="529.6" cy="276.8" r="3.0" fill="rgba(255,255,255,0.048)"/><circle cx="1104.1" cy="861.7" r="2.5" fill="rgba(255,255,255,0.048)"/><circle cx="1158.0" cy="588.0" r="1.2" fill="rgba(255,255,255,0.048)"/><circle cx="641.0" cy="483.1" r="2.3" fill="rgba(255,255,255,0.048)"/><circle cx="486.7" cy="571.3" r="2.1" fill="rgba(255,255,255,0.048)"/><circle cx="1330.9" cy="393.4" r="1.1" fill="rgba(255,255,255,0.048)"/><circle cx="496.8" cy="666.7" r="2.2" fill="rgba(255,255,255,0.048)"/><circle cx="546.8" cy="667.3" r="2.3" fill="rgba(255,255,255,0.048)"/><circle cx="1278.1" cy="103.8" r="2.1" fill="rgba(255,255,255,0.048)"/><circle cx="1112.4" cy="666.7" r="2.4" fill="rgba(255,255,255,0.048)"/><circle cx="1003.2" cy="611.9" r="2.5" fill="rgba(255,255,255,0.048)"/><circle cx="1427.0" cy="314.9" r="2.6" fill="rgba(255,255,255,0.048)"/><circle cx="300.8" cy="471.6" r="2.2" fill="rgba(255,255,255,0.048)"/><circle cx="1348.7" cy="787.1" r="1.6" fill="rgba(255,255,255,0.048)"/><circle cx="165.5" cy="346.9" r="2.3" fill="rgba(255,255,255,0.048)"/><circle cx="407.0" cy="45.6" r="2.5" fill="rgba(255,255,255,0.048)"/><circle cx="1079.9" cy="752.0" r="1.8" fill="rgba(255,255,255,0.048)"/><circle cx="997.9" cy="615.3" r="1.4" fill="rgba(255,255,255,0.048)"/><circle cx="1266.3" cy="84.3" r="1.1" fill="rgba(255,255,255,0.048)"/><circle cx="704.1" cy="240.2" r="1.1" fill="rgba(255,255,255,0.048)"/><circle cx="360.9" cy="561.3" r="2.4" fill="rgba(255,255,255,0.048)"/><circle cx="323.0" cy="538.9" r="2.2" fill="rgba(255,255,255,0.048)"/><circle cx="92.8" cy="137.6" r="2.2" fill="rgba(255,255,255,0.048)"/><circle cx="1465.7" cy="274.8" r="1.4" fill="rgba(255,255,255,0.048)"/><circle cx="648.6" cy="597.9" r="1.5" fill="rgba(255,255,255,0.048)"/><circle cx="208.3" cy="717.2" r="1.9" fill="rgba(255,255,255,0.048)"/><circle cx="908.0" cy="577.8" r="2.8" fill="rgba(255,255,255,0.048)"/><circle cx="195.3" cy="890.8" r="1.7" fill="rgba(255,255,255,0.048)"/><circle cx="876.2" cy="561.0" r="1.2" fill="rgba(255,255,255,0.048)"/><circle cx="1223.6" cy="787.6" r="2.3" fill="rgba(255,255,255,0.048)"/><circle cx="59.1" cy="222.0" r="1.7" fill="rgba(255,255,255,0.048)"/><circle cx="1231.1" cy="676.7" r="2.9" fill="rgba(255,255,255,0.048)"/><circle cx="732.8" cy="453.9" r="2.0" fill="rgba(255,255,255,0.048)"/><circle cx="853.1" cy="175.3" r="1.7" fill="rgba(255,255,255,0.048)"/><circle cx="983.0" cy="593.9" r="2.3" fill="rgba(255,255,255,0.048)"/><circle cx="94.5" cy="747.7" r="1.2" fill="rgba(255,255,255,0.048)"/><circle cx="102.9" cy="803.3" r="1.8" fill="rgba(255,255,255,0.048)"/><circle cx="408.0" cy="586.2" r="2.5" fill="rgba(255,255,255,0.048)"/><circle cx="1109.5" cy="520.8" r="2.0" fill="rgba(255,255,255,0.048)"/><circle cx="1026.8" cy="256.8" r="1.6" fill="rgba(255,255,255,0.048)"/><circle cx="588.1" cy="301.3" r="1.8" fill="rgba(255,255,255,0.048)"/><circle cx="287.9" cy="309.1" r="1.1" fill="rgba(255,255,255,0.048)"/><circle cx="866.9" cy="378.1" r="1.1" fill="rgba(255,255,255,0.048)"/><circle cx="1007.7" cy="231.2" r="1.9" fill="rgba(255,255,255,0.048)"/><circle cx="182.9" cy="828.1" r="2.8" fill="rgba(255,255,255,0.048)"/><circle cx="218.8" cy="740.0" r="1.3" fill="rgba(255,255,255,0.048)"/><circle cx="764.6" cy="326.0" r="1.0" fill="rgba(255,255,255,0.048)"/><circle cx="1137.6" cy="324.9" r="2.5" fill="rgba(255,255,255,0.048)"/><circle cx="1343.0" cy="390.6" r="2.7" fill="rgba(255,255,255,0.048)"/><circle cx="1167.0" cy="467.1" r="2.7" fill="rgba(255,255,255,0.048)"/><circle cx="1251.9" cy="397.7" r="2.3" fill="rgba(255,255,255,0.048)"/><circle cx="391.7" cy="401.2" r="1.5" fill="rgba(255,255,255,0.048)"/><circle cx="1051.7" cy="352.6" r="2.9" fill="rgba(255,255,255,0.048)"/>
  
    <g stroke="rgba(255,255,255,0.85)" stroke-width="4" fill="none">
      <path d="M820 250 H 980 V 350 H 1180 V 250 H 1340"/>
      <path d="M820 450 H 1080 V 550 H 1340"/>
      <path d="M820 650 H 920 V 550 H 1080"/>
    </g>
    <g fill="rgba(255,255,255,0.95)">
      <circle cx="820" cy="250" r="8"/><circle cx="980" cy="350" r="8"/><circle cx="1180" cy="250" r="8"/><circle cx="1340" cy="250" r="8"/><circle cx="820" cy="450" r="8"/><circle cx="1080" cy="550" r="8"/><circle cx="1340" cy="450" r="8"/><circle cx="820" cy="650" r="8"/><circle cx="920" cy="550" r="8"/><circle cx="1080" cy="550" r="8"/>
    </g>
  <g font-family="Inter, system-ui, -apple-system, Segoe UI, Roboto, sans-serif" fill="#ffffff">
    <text x="80" y="120" font-size="28" letter-spacing="6" font-weight="600" opacity="0.85">TECHNOLOGY</text>
    <text x="80" y="260" font-size="76" font-weight="800">VoIP Technology Guide:</text>
    <text x="80" y="352" font-size="76" font-weight="800">Understanding Modern Voice</text>
    <text x="80" y="444" font-size="76" font-weight="800">Communication</text>
    <text x="80" y="820" font-size="28" font-weight="700" letter-spacing="4">VOIP CAT</text>
    <text x="80" y="855" font-size="20" opacity="0.85">voipcat.com · Global VoIP &amp; Call Center Provider</text>
  </g>
</svg>