<svg xmlns="http://www.w3.org/2000/svg" viewBox="0 0 1600 900" role="img" aria-label="VoIP for Call Centers: The Complete Guide - Call Centers cover image by VOIP CAT">
  <defs>
    <linearGradient id="bg" x1="0" y1="0" x2="1" y2="1">
      <stop offset="0" stop-color="#fb923c"/>
      <stop offset="1" stop-color="#9a3412"/>
    </linearGradient>
    <radialGradient id="glow" cx="0.78" cy="0.42" r="0.55">
      <stop offset="0" stop-color="rgba(255,255,255,0.35)"/>
      <stop offset="1" stop-color="rgba(255,255,255,0)"/>
    </radialGradient>
  </defs>
  <rect width="1600" height="900" fill="url(#bg)"/>
  <rect width="1600" height="900" fill="url(#glow)"/>
  <circle cx="255.6" cy="728.9" r="1.7" fill="rgba(255,255,255,0.090)"/><circle cx="702.7" cy="659.8" r="2.0" fill="rgba(255,255,255,0.090)"/><circle cx="1121.7" cy="830.0" r="1.7" fill="rgba(255,255,255,0.090)"/><circle cx="601.1" cy="575.8" r="1.6" fill="rgba(255,255,255,0.090)"/><circle cx="863.9" cy="784.3" r="1.8" fill="rgba(255,255,255,0.090)"/><circle cx="1483.3" cy="806.1" r="1.8" fill="rgba(255,255,255,0.090)"/><circle cx="372.7" cy="867.6" r="2.1" fill="rgba(255,255,255,0.090)"/><circle cx="1442.0" cy="434.1" r="2.5" fill="rgba(255,255,255,0.090)"/><circle cx="995.3" cy="210.9" r="1.5" fill="rgba(255,255,255,0.090)"/><circle cx="210.5" cy="766.6" r="1.7" fill="rgba(255,255,255,0.090)"/><circle cx="361.7" cy="316.5" r="2.7" fill="rgba(255,255,255,0.090)"/><circle cx="568.5" cy="14.7" r="2.8" fill="rgba(255,255,255,0.090)"/><circle cx="510.7" cy="157.5" r="1.3" fill="rgba(255,255,255,0.090)"/><circle cx="42.9" cy="60.1" r="1.1" fill="rgba(255,255,255,0.090)"/><circle cx="578.7" cy="498.8" r="1.6" fill="rgba(255,255,255,0.090)"/><circle cx="258.7" cy="822.4" r="1.7" fill="rgba(255,255,255,0.090)"/><circle cx="187.2" cy="645.5" r="1.4" fill="rgba(255,255,255,0.090)"/><circle cx="570.1" cy="301.5" r="2.1" fill="rgba(255,255,255,0.090)"/><circle cx="365.7" cy="568.8" r="2.8" fill="rgba(255,255,255,0.090)"/><circle cx="205.4" cy="128.9" r="1.7" fill="rgba(255,255,255,0.090)"/><circle cx="1408.9" cy="424.5" r="2.3" fill="rgba(255,255,255,0.090)"/><circle cx="1182.1" cy="568.6" r="2.7" fill="rgba(255,255,255,0.090)"/><circle cx="783.0" cy="760.2" r="2.2" fill="rgba(255,255,255,0.090)"/><circle cx="617.4" cy="68.7" r="2.8" fill="rgba(255,255,255,0.090)"/><circle cx="903.1" cy="540.9" r="1.1" fill="rgba(255,255,255,0.090)"/><circle cx="765.7" cy="748.9" r="2.7" fill="rgba(255,255,255,0.090)"/><circle cx="571.7" cy="282.2" r="2.5" fill="rgba(255,255,255,0.090)"/><circle cx="633.0" cy="233.2" r="1.3" fill="rgba(255,255,255,0.090)"/><circle cx="467.9" cy="405.5" r="2.4" fill="rgba(255,255,255,0.090)"/><circle cx="346.1" cy="350.0" r="1.9" fill="rgba(255,255,255,0.090)"/><circle cx="1509.2" cy="381.5" r="2.3" fill="rgba(255,255,255,0.090)"/><circle cx="18.9" cy="13.9" r="1.7" fill="rgba(255,255,255,0.090)"/><circle cx="420.1" cy="800.7" r="2.5" fill="rgba(255,255,255,0.090)"/><circle cx="1178.2" cy="737.9" r="1.9" fill="rgba(255,255,255,0.090)"/><circle cx="502.6" cy="512.8" r="1.1" fill="rgba(255,255,255,0.090)"/><circle cx="1274.0" cy="269.2" r="2.4" fill="rgba(255,255,255,0.090)"/><circle cx="1427.8" cy="172.6" r="2.2" fill="rgba(255,255,255,0.090)"/><circle cx="640.3" cy="317.6" r="1.3" fill="rgba(255,255,255,0.090)"/><circle cx="1082.7" cy="821.7" r="2.3" fill="rgba(255,255,255,0.090)"/><circle cx="959.9" cy="195.5" r="2.8" fill="rgba(255,255,255,0.090)"/><circle cx="1445.1" cy="195.1" r="1.6" fill="rgba(255,255,255,0.090)"/><circle cx="1054.3" cy="445.3" r="2.4" fill="rgba(255,255,255,0.090)"/><circle cx="835.5" cy="583.9" r="2.0" fill="rgba(255,255,255,0.090)"/><circle cx="964.0" cy="119.1" r="1.7" fill="rgba(255,255,255,0.090)"/><circle cx="1404.9" cy="22.3" r="1.2" fill="rgba(255,255,255,0.090)"/><circle cx="612.4" cy="86.5" r="2.0" fill="rgba(255,255,255,0.090)"/><circle cx="302.4" cy="296.2" r="1.2" fill="rgba(255,255,255,0.090)"/><circle cx="132.3" cy="123.7" r="2.5" fill="rgba(255,255,255,0.090)"/><circle cx="507.1" cy="307.0" r="1.0" fill="rgba(255,255,255,0.090)"/><circle cx="177.7" cy="839.7" r="2.2" fill="rgba(255,255,255,0.090)"/><circle cx="1048.2" cy="710.0" r="2.1" fill="rgba(255,255,255,0.090)"/><circle cx="648.3" cy="877.5" r="2.0" fill="rgba(255,255,255,0.090)"/><circle cx="374.0" cy="625.2" r="1.8" fill="rgba(255,255,255,0.090)"/><circle cx="574.4" cy="284.5" r="2.3" fill="rgba(255,255,255,0.090)"/><circle cx="74.0" cy="373.2" r="2.8" fill="rgba(255,255,255,0.090)"/><circle cx="1528.7" cy="717.2" r="2.3" fill="rgba(255,255,255,0.090)"/><circle cx="1551.2" cy="740.7" r="1.6" fill="rgba(255,255,255,0.090)"/><circle cx="112.5" cy="593.6" r="1.9" fill="rgba(255,255,255,0.090)"/><circle cx="331.6" cy="561.7" r="2.4" fill="rgba(255,255,255,0.090)"/><circle cx="1028.5" cy="323.2" r="2.7" fill="rgba(255,255,255,0.090)"/>
  
    <g transform="translate(1100 450)" stroke="rgba(255,255,255,0.95)" stroke-width="8" fill="none" stroke-linecap="round" stroke-linejoin="round">
      <path d="M-160 0 a 160 160 0 0 1 320 0" />
      <rect x="-180" y="-10" width="60" height="120" rx="20" fill="rgba(255,255,255,0.95)" />
      <rect x="120" y="-10" width="60" height="120" rx="20" fill="rgba(255,255,255,0.95)" />
      <path d="M120 90 q 0 90 -90 100 l -60 0 a 18 18 0 0 1 -18 -18 l 0 -24 a 18 18 0 0 1 18 -18 l 60 0" />
    </g>
  <g font-family="Inter, system-ui, -apple-system, Segoe UI, Roboto, sans-serif" fill="#ffffff">
    <text x="80" y="120" font-size="28" letter-spacing="6" font-weight="600" opacity="0.85">CALL CENTERS</text>
    <text x="80" y="260" font-size="76" font-weight="800">VoIP for Call Centers: The</text>
    <text x="80" y="352" font-size="76" font-weight="800">Complete Guide</text>
    <text x="80" y="820" font-size="28" font-weight="700" letter-spacing="4">VOIP CAT</text>
    <text x="80" y="855" font-size="20" opacity="0.85">voipcat.com · Global VoIP &amp; Call Center Provider</text>
  </g>
</svg>