<svg xmlns="http://www.w3.org/2000/svg" viewBox="0 0 1600 900" role="img" aria-label="What is VoIP? A Complete Guide to Voice over Internet Protocol - VoIP Basics cover image by VOIP CAT">
  <defs>
    <linearGradient id="bg" x1="0" y1="0" x2="1" y2="1">
      <stop offset="0" stop-color="#0ea5e9"/>
      <stop offset="1" stop-color="#1e3a8a"/>
    </linearGradient>
    <radialGradient id="glow" cx="0.78" cy="0.42" r="0.55">
      <stop offset="0" stop-color="rgba(255,255,255,0.35)"/>
      <stop offset="1" stop-color="rgba(255,255,255,0)"/>
    </radialGradient>
  </defs>
  <rect width="1600" height="900" fill="url(#bg)"/>
  <rect width="1600" height="900" fill="url(#glow)"/>
  <circle cx="478.2" cy="769.1" r="2.2" fill="rgba(255,255,255,0.084)"/><circle cx="1057.3" cy="588.2" r="2.6" fill="rgba(255,255,255,0.084)"/><circle cx="701.7" cy="143.7" r="2.3" fill="rgba(255,255,255,0.084)"/><circle cx="634.8" cy="184.5" r="1.2" fill="rgba(255,255,255,0.084)"/><circle cx="10.7" cy="789.2" r="3.0" fill="rgba(255,255,255,0.084)"/><circle cx="1166.6" cy="546.8" r="1.6" fill="rgba(255,255,255,0.084)"/><circle cx="488.2" cy="737.5" r="2.4" fill="rgba(255,255,255,0.084)"/><circle cx="1048.4" cy="143.3" r="2.6" fill="rgba(255,255,255,0.084)"/><circle cx="1136.1" cy="524.6" r="1.2" fill="rgba(255,255,255,0.084)"/><circle cx="1072.8" cy="22.4" r="2.7" fill="rgba(255,255,255,0.084)"/><circle cx="352.7" cy="462.5" r="2.6" fill="rgba(255,255,255,0.084)"/><circle cx="1450.6" cy="205.7" r="1.6" fill="rgba(255,255,255,0.084)"/><circle cx="707.2" cy="560.1" r="2.1" fill="rgba(255,255,255,0.084)"/><circle cx="805.8" cy="306.3" r="1.9" fill="rgba(255,255,255,0.084)"/><circle cx="1373.2" cy="345.9" r="2.0" fill="rgba(255,255,255,0.084)"/><circle cx="1090.0" cy="311.0" r="2.6" fill="rgba(255,255,255,0.084)"/><circle cx="662.9" cy="863.5" r="2.1" fill="rgba(255,255,255,0.084)"/><circle cx="961.0" cy="888.1" r="2.0" fill="rgba(255,255,255,0.084)"/><circle cx="620.2" cy="697.3" r="2.6" fill="rgba(255,255,255,0.084)"/><circle cx="475.1" cy="49.2" r="1.5" fill="rgba(255,255,255,0.084)"/><circle cx="842.1" cy="445.5" r="2.0" fill="rgba(255,255,255,0.084)"/><circle cx="1124.2" cy="263.0" r="1.4" fill="rgba(255,255,255,0.084)"/><circle cx="1072.3" cy="133.3" r="2.4" fill="rgba(255,255,255,0.084)"/><circle cx="1245.2" cy="870.6" r="1.8" fill="rgba(255,255,255,0.084)"/><circle cx="915.9" cy="610.6" r="1.2" fill="rgba(255,255,255,0.084)"/><circle cx="564.8" cy="36.8" r="2.5" fill="rgba(255,255,255,0.084)"/><circle cx="529.0" cy="360.6" r="1.1" fill="rgba(255,255,255,0.084)"/><circle cx="1409.3" cy="137.9" r="2.8" fill="rgba(255,255,255,0.084)"/><circle cx="329.7" cy="145.5" r="2.5" fill="rgba(255,255,255,0.084)"/><circle cx="190.6" cy="625.9" r="1.5" fill="rgba(255,255,255,0.084)"/><circle cx="761.9" cy="481.9" r="1.4" fill="rgba(255,255,255,0.084)"/><circle cx="934.1" cy="291.4" r="1.0" fill="rgba(255,255,255,0.084)"/><circle cx="128.4" cy="258.9" r="1.3" fill="rgba(255,255,255,0.084)"/><circle cx="1330.2" cy="154.8" r="1.1" fill="rgba(255,255,255,0.084)"/><circle cx="608.4" cy="729.5" r="2.0" fill="rgba(255,255,255,0.084)"/><circle cx="1561.9" cy="276.5" r="1.4" fill="rgba(255,255,255,0.084)"/><circle cx="178.2" cy="424.2" r="2.6" fill="rgba(255,255,255,0.084)"/><circle cx="1503.0" cy="896.5" r="1.7" fill="rgba(255,255,255,0.084)"/><circle cx="546.9" cy="403.4" r="1.2" fill="rgba(255,255,255,0.084)"/><circle cx="1430.1" cy="52.0" r="1.1" fill="rgba(255,255,255,0.084)"/><circle cx="1153.0" cy="190.0" r="1.4" fill="rgba(255,255,255,0.084)"/><circle cx="1303.6" cy="670.8" r="2.4" fill="rgba(255,255,255,0.084)"/><circle cx="890.4" cy="658.0" r="1.4" fill="rgba(255,255,255,0.084)"/><circle cx="657.6" cy="656.5" r="2.8" fill="rgba(255,255,255,0.084)"/><circle cx="1220.2" cy="834.4" r="2.0" fill="rgba(255,255,255,0.084)"/><circle cx="380.8" cy="814.8" r="1.8" fill="rgba(255,255,255,0.084)"/><circle cx="359.5" cy="67.1" r="2.9" fill="rgba(255,255,255,0.084)"/><circle cx="596.8" cy="694.5" r="2.6" fill="rgba(255,255,255,0.084)"/><circle cx="497.1" cy="435.8" r="1.5" fill="rgba(255,255,255,0.084)"/><circle cx="1193.3" cy="499.6" r="2.8" fill="rgba(255,255,255,0.084)"/><circle cx="227.2" cy="582.4" r="1.9" fill="rgba(255,255,255,0.084)"/><circle cx="1222.2" cy="845.9" r="2.1" fill="rgba(255,255,255,0.084)"/><circle cx="544.0" cy="713.0" r="2.9" fill="rgba(255,255,255,0.084)"/><circle cx="1593.9" cy="417.0" r="1.3" fill="rgba(255,255,255,0.084)"/><circle cx="1390.4" cy="793.8" r="1.3" fill="rgba(255,255,255,0.084)"/><circle cx="774.7" cy="697.2" r="2.4" fill="rgba(255,255,255,0.084)"/><circle cx="1479.1" cy="541.3" r="1.9" fill="rgba(255,255,255,0.084)"/><circle cx="658.3" cy="339.6" r="2.3" fill="rgba(255,255,255,0.084)"/><circle cx="1071.8" cy="183.6" r="1.9" fill="rgba(255,255,255,0.084)"/><circle cx="1129.4" cy="431.2" r="2.5" fill="rgba(255,255,255,0.084)"/>
  
    <g transform="translate(1100 450) rotate(-12)" fill="none" stroke="rgba(255,255,255,0.92)" stroke-width="6" stroke-linecap="round" stroke-linejoin="round">
      <rect x="-90" y="-180" width="180" height="360" rx="28" />
      <line x1="-50" y1="-150" x2="50" y2="-150" />
      <circle cx="0" cy="140" r="14" />
    </g>
    <g stroke="rgba(255,255,255,0.55)" stroke-width="4" fill="none">
      <path d="M1240 280 q 70 70 0 140" />
      <path d="M1290 250 q 110 110 0 220" />
      <path d="M1340 220 q 150 150 0 300" />
    </g>
  <g font-family="Inter, system-ui, -apple-system, Segoe UI, Roboto, sans-serif" fill="#ffffff">
    <text x="80" y="120" font-size="28" letter-spacing="6" font-weight="600" opacity="0.85">VOIP BASICS</text>
    <text x="80" y="260" font-size="76" font-weight="800">What is VoIP? A Complete</text>
    <text x="80" y="352" font-size="76" font-weight="800">Guide to Voice over</text>
    <text x="80" y="444" font-size="76" font-weight="800">Internet Protocol</text>
    <text x="80" y="820" font-size="28" font-weight="700" letter-spacing="4">VOIP CAT</text>
    <text x="80" y="855" font-size="20" opacity="0.85">voipcat.com · Global VoIP &amp; Call Center Provider</text>
  </g>
</svg>