<svg xmlns="http://www.w3.org/2000/svg" viewBox="0 0 1600 900" role="img" aria-label="Wholesale VoIP Explained: A Guide for Carriers and Resellers - Wholesale VoIP cover image by VOIP CAT">
  <defs>
    <linearGradient id="bg" x1="0" y1="0" x2="1" y2="1">
      <stop offset="0" stop-color="#34d399"/>
      <stop offset="1" stop-color="#065f46"/>
    </linearGradient>
    <radialGradient id="glow" cx="0.78" cy="0.42" r="0.55">
      <stop offset="0" stop-color="rgba(255,255,255,0.35)"/>
      <stop offset="1" stop-color="rgba(255,255,255,0)"/>
    </radialGradient>
  </defs>
  <rect width="1600" height="900" fill="url(#bg)"/>
  <rect width="1600" height="900" fill="url(#glow)"/>
  <circle cx="737.3" cy="244.8" r="1.4" fill="rgba(255,255,255,0.080)"/><circle cx="940.3" cy="144.8" r="1.8" fill="rgba(255,255,255,0.080)"/><circle cx="603.4" cy="886.0" r="1.6" fill="rgba(255,255,255,0.080)"/><circle cx="23.3" cy="714.0" r="2.6" fill="rgba(255,255,255,0.080)"/><circle cx="438.5" cy="852.1" r="2.2" fill="rgba(255,255,255,0.080)"/><circle cx="84.2" cy="389.4" r="1.9" fill="rgba(255,255,255,0.080)"/><circle cx="52.4" cy="41.9" r="2.6" fill="rgba(255,255,255,0.080)"/><circle cx="1090.3" cy="308.9" r="1.4" fill="rgba(255,255,255,0.080)"/><circle cx="96.8" cy="638.0" r="2.8" fill="rgba(255,255,255,0.080)"/><circle cx="696.4" cy="57.9" r="2.3" fill="rgba(255,255,255,0.080)"/><circle cx="630.8" cy="861.9" r="1.2" fill="rgba(255,255,255,0.080)"/><circle cx="1000.5" cy="114.5" r="2.8" fill="rgba(255,255,255,0.080)"/><circle cx="1276.4" cy="443.2" r="2.9" fill="rgba(255,255,255,0.080)"/><circle cx="983.2" cy="349.1" r="1.9" fill="rgba(255,255,255,0.080)"/><circle cx="638.8" cy="314.2" r="2.1" fill="rgba(255,255,255,0.080)"/><circle cx="37.3" cy="554.9" r="2.3" fill="rgba(255,255,255,0.080)"/><circle cx="447.1" cy="353.1" r="2.2" fill="rgba(255,255,255,0.080)"/><circle cx="1246.7" cy="473.6" r="2.2" fill="rgba(255,255,255,0.080)"/><circle cx="798.0" cy="14.9" r="2.8" fill="rgba(255,255,255,0.080)"/><circle cx="1454.7" cy="788.7" r="2.5" fill="rgba(255,255,255,0.080)"/><circle cx="1172.7" cy="667.0" r="2.8" fill="rgba(255,255,255,0.080)"/><circle cx="107.2" cy="457.1" r="1.4" fill="rgba(255,255,255,0.080)"/><circle cx="653.6" cy="73.8" r="2.7" fill="rgba(255,255,255,0.080)"/><circle cx="1332.1" cy="338.5" r="2.4" fill="rgba(255,255,255,0.080)"/><circle cx="484.9" cy="551.8" r="2.4" fill="rgba(255,255,255,0.080)"/><circle cx="1562.8" cy="327.1" r="1.3" fill="rgba(255,255,255,0.080)"/><circle cx="564.0" cy="206.0" r="2.0" fill="rgba(255,255,255,0.080)"/><circle cx="855.0" cy="791.8" r="1.2" fill="rgba(255,255,255,0.080)"/><circle cx="92.2" cy="364.4" r="2.0" fill="rgba(255,255,255,0.080)"/><circle cx="622.4" cy="790.3" r="2.7" fill="rgba(255,255,255,0.080)"/><circle cx="1551.3" cy="62.5" r="2.8" fill="rgba(255,255,255,0.080)"/><circle cx="1113.6" cy="663.4" r="1.9" fill="rgba(255,255,255,0.080)"/><circle cx="959.2" cy="491.3" r="1.9" fill="rgba(255,255,255,0.080)"/><circle cx="868.0" cy="696.4" r="1.7" fill="rgba(255,255,255,0.080)"/><circle cx="866.9" cy="544.6" r="1.9" fill="rgba(255,255,255,0.080)"/><circle cx="1142.9" cy="272.6" r="2.3" fill="rgba(255,255,255,0.080)"/><circle cx="1037.6" cy="334.4" r="1.3" fill="rgba(255,255,255,0.080)"/><circle cx="1597.8" cy="244.6" r="3.0" fill="rgba(255,255,255,0.080)"/><circle cx="1237.5" cy="518.8" r="1.8" fill="rgba(255,255,255,0.080)"/><circle cx="104.2" cy="696.8" r="2.8" fill="rgba(255,255,255,0.080)"/><circle cx="1280.4" cy="452.6" r="2.4" fill="rgba(255,255,255,0.080)"/><circle cx="430.6" cy="1.6" r="2.1" fill="rgba(255,255,255,0.080)"/><circle cx="1528.2" cy="512.9" r="1.5" fill="rgba(255,255,255,0.080)"/><circle cx="1390.1" cy="107.4" r="1.3" fill="rgba(255,255,255,0.080)"/><circle cx="483.7" cy="195.7" r="2.7" fill="rgba(255,255,255,0.080)"/><circle cx="598.5" cy="874.4" r="1.5" fill="rgba(255,255,255,0.080)"/><circle cx="576.8" cy="615.5" r="2.3" fill="rgba(255,255,255,0.080)"/><circle cx="1172.6" cy="800.4" r="2.8" fill="rgba(255,255,255,0.080)"/><circle cx="261.3" cy="612.0" r="1.3" fill="rgba(255,255,255,0.080)"/><circle cx="1454.4" cy="404.3" r="1.2" fill="rgba(255,255,255,0.080)"/><circle cx="1487.3" cy="41.1" r="1.9" fill="rgba(255,255,255,0.080)"/><circle cx="312.1" cy="502.7" r="2.3" fill="rgba(255,255,255,0.080)"/><circle cx="896.3" cy="529.0" r="2.7" fill="rgba(255,255,255,0.080)"/><circle cx="843.0" cy="266.0" r="2.2" fill="rgba(255,255,255,0.080)"/><circle cx="115.8" cy="211.9" r="2.7" fill="rgba(255,255,255,0.080)"/><circle cx="11.7" cy="416.7" r="2.4" fill="rgba(255,255,255,0.080)"/><circle cx="1250.3" cy="738.1" r="1.6" fill="rgba(255,255,255,0.080)"/><circle cx="250.9" cy="493.4" r="1.8" fill="rgba(255,255,255,0.080)"/><circle cx="701.6" cy="458.9" r="2.1" fill="rgba(255,255,255,0.080)"/><circle cx="1559.6" cy="600.7" r="1.0" fill="rgba(255,255,255,0.080)"/>
  
    <g transform="translate(1100 450)" fill="none" stroke="rgba(255,255,255,0.9)" stroke-width="4">
      <circle r="200" />
      <ellipse rx="200" ry="80" />
      <ellipse rx="200" ry="140" />
      <ellipse rx="80" ry="200" />
      <ellipse rx="140" ry="200" />
      <line x1="-200" y1="0" x2="200" y2="0" />
      <line x1="0" y1="-200" x2="0" y2="200" />
    </g>
  <g font-family="Inter, system-ui, -apple-system, Segoe UI, Roboto, sans-serif" fill="#ffffff">
    <text x="80" y="120" font-size="28" letter-spacing="6" font-weight="600" opacity="0.85">WHOLESALE VOIP</text>
    <text x="80" y="260" font-size="76" font-weight="800">Wholesale VoIP Explained:</text>
    <text x="80" y="352" font-size="76" font-weight="800">A Guide for Carriers and</text>
    <text x="80" y="444" font-size="76" font-weight="800">Resellers</text>
    <text x="80" y="820" font-size="28" font-weight="700" letter-spacing="4">VOIP CAT</text>
    <text x="80" y="855" font-size="20" opacity="0.85">voipcat.com · Global VoIP &amp; Call Center Provider</text>
  </g>
</svg>